<?xml version="1.0" encoding="iso-8859-1"?>
<!-- Generator: Adobe Illustrator 15.1.0, SVG Export Plug-In . SVG Version: 6.00 Build 0)  -->
<!DOCTYPE svg PUBLIC "-//W3C//DTD SVG 1.1//EN" "http://www.w3.org/Graphics/SVG/1.1/DTD/svg11.dtd">
<svg version="1.1" xmlns="http://www.w3.org/2000/svg" xmlns:xlink="http://www.w3.org/1999/xlink" x="0px" y="0px" width="30px"
	 height="51px" viewBox="0 0 30 51" style="enable-background:new 0 0 30 51;" xml:space="preserve">
<g id="Layer_1">
</g>
<g id="Gestures">
	<g>
		<g id="Flick_Up_2_">
			<g id="Tap__x28_Stroked_x29__8_">
				<path style="fill:#010101;" d="M1,37c-0.553,0-1-0.448-1-1c0-8.271,6.729-15,15.001-15C23.271,21,30,27.729,30,35.999
					c0,0.553-0.447,1-1,1s-1-0.447-1-1C28,28.832,22.168,23,15.001,23C7.832,23,2,28.832,2,36C2,36.552,1.553,37,1,37z"/>
				<path style="fill:#010101;" d="M15,29c-6.284,0-8.114,5.678-8.114,19.004v0.6C9.227,50.114,12.008,51,15,51
					s5.773-0.887,8.114-2.396v-0.6C23.114,34.678,21.284,29,15,29z M14.981,40.989c-6.018,0-5.127-7.311-5.127-7.311
					s1.026-2.314,5.127-2.314s5.17,2.314,5.17,2.314S20.996,40.989,14.981,40.989z"/>
			</g>
			<polygon style="fill:#010101;" points="20,10 20,12.562 16,9.36 16,16 14,16 14,9.361 10,12.562 10,10 15.001,6 			"/>
			<polygon id="Arrow_15_" style="fill:#010101;" points="15,2.557 10,6.562 10,4 15.001,0 20,4 20,6.562 			"/>
		</g>
	</g>
</g>
</svg>
