<?xml version="1.0" encoding="iso-8859-1"?>
<!-- Generator: Adobe Illustrator 15.1.0, SVG Export Plug-In . SVG Version: 6.00 Build 0)  -->
<!DOCTYPE svg PUBLIC "-//W3C//DTD SVG 1.1//EN" "http://www.w3.org/Graphics/SVG/1.1/DTD/svg11.dtd">
<svg version="1.1" xmlns="http://www.w3.org/2000/svg" xmlns:xlink="http://www.w3.org/1999/xlink" x="0px" y="0px" width="30px"
	 height="51px" viewBox="0 0 30 51" style="enable-background:new 0 0 30 51;" xml:space="preserve">
<g id="Layer_1">
</g>
<g id="Gestures">
	<g>
		<g id="Flick_Down_2_">
			<g id="Tap__x28_Stroked_x29__7_">
				<path style="fill:#010101;" d="M1,16c-0.552,0-1-0.448-1-1C0,6.729,6.729,0,15.001,0C23.271,0,30,6.729,30,14.999
					c0,0.552-0.448,1-1,1s-1-0.448-1-1C28,7.832,22.169,2,15.001,2C7.832,2,2,7.832,2,15C2,15.552,1.552,16,1,16z"/>
				<path style="fill:#010101;" d="M15,8c-6.284,0-8.114,5.679-8.114,19.005v0.599C9.227,29.114,12.007,30,15,30
					c2.993,0,5.773-0.887,8.114-2.396v-0.599C23.114,13.679,21.284,8,15,8z M14.981,19.989c-6.018,0-5.127-7.311-5.127-7.311
					s1.026-2.315,5.127-2.315s5.17,2.315,5.17,2.315S20.996,19.989,14.981,19.989z"/>
			</g>
			<polygon style="fill:#010101;" points="20,41 20,38.438 16,41.639 16,35 14,35 14,41.639 10,38.438 10,41 15.001,45 			"/>
			<polygon id="Arrow_14_" style="fill:#010101;" points="15,48.444 10,44.438 10,47 15.001,51 20,47 20,44.438 			"/>
		</g>
	</g>
</g>
</svg>
