<?xml version="1.0" encoding="iso-8859-1"?>
<!-- Generator: Adobe Illustrator 15.1.0, SVG Export Plug-In . SVG Version: 6.00 Build 0)  -->
<!DOCTYPE svg PUBLIC "-//W3C//DTD SVG 1.1//EN" "http://www.w3.org/Graphics/SVG/1.1/DTD/svg11.dtd">
<svg version="1.1" xmlns="http://www.w3.org/2000/svg" xmlns:xlink="http://www.w3.org/1999/xlink" x="0px" y="0px" width="72px"
	 height="72px" viewBox="0 0 72 72" style="enable-background:new 0 0 72 72;" xml:space="preserve">
<g id="Layer_1">
</g>
<g id="Gestures">
	<g>
		<g id="Flick_Omnidirectionally_2_">
			<g id="Tap__x28_Stroked_x29__1_">
				<path style="fill:#010101;" d="M22,37c-0.552,0-1-0.448-1-1c0-8.271,6.729-15,15.001-15C44.271,21,51,27.729,51,35.999
					c0,0.552-0.447,1-1,1s-1-0.448-1-1C49,28.832,43.168,23,36.001,23C28.832,23,23,28.832,23,36C23,36.552,22.552,37,22,37z"/>
				<path style="fill:#010101;" d="M36,29c-6.284,0-8.114,5.679-8.114,19.004v0.6C30.227,50.114,33.007,51,36,51
					c2.992,0,5.773-0.887,8.114-2.396v-0.6C44.114,34.679,42.284,29,36,29z M35.981,40.989c-6.018,0-5.127-7.31-5.127-7.31
					s1.026-2.315,5.127-2.315s5.17,2.315,5.17,2.315S41.996,40.989,35.981,40.989z"/>
			</g>
			<polygon style="fill:#010101;" points="62,31 59.438,31 62.64,35 56,35 56,37 62.639,37 59.438,41 62,41 66,35.999 			"/>
			<polygon id="Arrow_5_" style="fill:#010101;" points="69.443,36 65.438,41 68,41 72,35.999 68,31 65.438,31 			"/>
			<polygon style="fill:#010101;" points="10,31 12.562,31 9.36,35 16,35 16,37 9.361,37 12.562,41 10,41 6,35.999 			"/>
			<polygon id="Arrow_4_" style="fill:#010101;" points="2.557,36 6.562,41 4,41 0,35.999 4,31 6.562,31 			"/>
			<polygon style="fill:#010101;" points="41,62 41,59.438 37,62.639 37,56 35,56 35,62.639 31,59.438 31,62 36.001,66 			"/>
			<polygon id="Arrow_3_" style="fill:#010101;" points="36,69.444 31,65.438 31,68 36.001,72 41,68 41,65.438 			"/>
			<polygon style="fill:#010101;" points="41,10 41,12.562 37,9.36 37,16 35,16 35,9.361 31,12.562 31,10 36.001,6 			"/>
			<polygon id="Arrow_2_" style="fill:#010101;" points="36,2.557 31,6.562 31,4 36.001,0 41,4 41,6.562 			"/>
		</g>
	</g>
</g>
</svg>
