<?xml version="1.0" encoding="iso-8859-1"?>
<!-- Generator: Adobe Illustrator 15.1.0, SVG Export Plug-In . SVG Version: 6.00 Build 0)  -->
<!DOCTYPE svg PUBLIC "-//W3C//DTD SVG 1.1//EN" "http://www.w3.org/Graphics/SVG/1.1/DTD/svg11.dtd">
<svg version="1.1" xmlns="http://www.w3.org/2000/svg" xmlns:xlink="http://www.w3.org/1999/xlink" x="0px" y="0px" width="72px"
	 height="30px" viewBox="0 0 72 30" style="enable-background:new 0 0 72 30;" xml:space="preserve">
<g id="Layer_1">
</g>
<g id="Gestures">
	<g>
		<g id="Flick_Horizontally_2_">
			<g id="Tap__x28_Stroked_x29__3_">
				<path style="fill:#010101;" d="M22,16c-0.552,0-1-0.448-1-1c0-8.271,6.729-15,15.001-15C44.271,0,51,6.729,51,14.999
					c0,0.552-0.447,1-1,1s-1-0.448-1-1C49,7.832,43.168,2,36.001,2C28.832,2,23,7.832,23,15C23,15.552,22.552,16,22,16z"/>
				<path style="fill:#010101;" d="M36,8c-6.284,0-8.114,5.679-8.114,19.005v0.599C30.227,29.113,33.007,30,36,30
					c2.992,0,5.773-0.887,8.114-2.396v-0.599C44.114,13.679,42.284,8,36,8z M35.981,19.989c-6.018,0-5.127-7.311-5.127-7.311
					s1.026-2.315,5.127-2.315s5.17,2.315,5.17,2.315S41.996,19.989,35.981,19.989z"/>
			</g>
			<polygon style="fill:#010101;" points="62,10 59.438,10 62.64,14 56,14 56,16 62.639,16 59.438,20 62,20 66,14.999 			"/>
			<polygon id="Arrow_10_" style="fill:#010101;" points="69.443,15 65.438,20 68,20 72,14.999 68,10 65.438,10 			"/>
			<polygon style="fill:#010101;" points="10,10 12.562,10 9.36,14 16,14 16,16 9.361,16 12.562,20 10,20 6,14.999 			"/>
			<polygon id="Arrow_8_" style="fill:#010101;" points="2.557,15 6.562,20 4,20 0,14.999 4,10 6.562,10 			"/>
		</g>
	</g>
</g>
</svg>
