<?xml version="1.0" encoding="iso-8859-1"?>
<!-- Generator: Adobe Illustrator 15.1.0, SVG Export Plug-In . SVG Version: 6.00 Build 0)  -->
<!DOCTYPE svg PUBLIC "-//W3C//DTD SVG 1.1//EN" "http://www.w3.org/Graphics/SVG/1.1/DTD/svg11.dtd">
<svg version="1.1" xmlns="http://www.w3.org/2000/svg" xmlns:xlink="http://www.w3.org/1999/xlink" x="0px" y="0px"
	 width="31.025px" height="60.93px" viewBox="0 0 31.025 60.93" style="enable-background:new 0 0 31.025 60.93;"
	 xml:space="preserve">
<g id="Layer_1">
</g>
<g id="Gestures">
	<g>
		<g>
			<path style="fill:#010101;" d="M3.012,56.568v0.792h-2.07v0.99h1.794v0.732H0.942v1.77H0v-4.284H3.012z"/>
			<path style="fill:#010101;" d="M4.344,56.568v4.284H3.492v-4.284H4.344z"/>
			<path style="fill:#010101;" d="M5.04,57.27v-0.702h0.852v0.702H5.04z M5.892,57.75v3.102H5.04V57.75H5.892z"/>
			<path style="fill:#010101;" d="M8.046,58.308c-0.136,0-0.25,0.03-0.342,0.093c-0.092,0.062-0.167,0.143-0.225,0.24
				c-0.058,0.098-0.099,0.206-0.123,0.324C7.332,59.083,7.32,59.2,7.32,59.316c0,0.112,0.012,0.226,0.036,0.343
				c0.024,0.115,0.063,0.221,0.117,0.314c0.054,0.094,0.127,0.171,0.219,0.23c0.092,0.061,0.204,0.09,0.336,0.09
				c0.204,0,0.361-0.057,0.471-0.17c0.11-0.114,0.179-0.268,0.207-0.459h0.822c-0.056,0.412-0.216,0.726-0.48,0.941
				c-0.264,0.217-0.602,0.324-1.014,0.324c-0.232,0-0.445-0.039-0.639-0.117c-0.194-0.078-0.359-0.188-0.495-0.327
				c-0.136-0.14-0.242-0.307-0.318-0.501c-0.076-0.193-0.114-0.406-0.114-0.639c0-0.24,0.035-0.463,0.105-0.669
				s0.173-0.384,0.309-0.534c0.136-0.15,0.302-0.268,0.498-0.352c0.196-0.084,0.42-0.125,0.672-0.125
				c0.184,0,0.361,0.023,0.531,0.072c0.17,0.047,0.322,0.12,0.456,0.219c0.134,0.098,0.243,0.22,0.327,0.365
				c0.084,0.146,0.132,0.319,0.144,0.52H8.676C8.62,58.486,8.41,58.308,8.046,58.308z"/>
			<path style="fill:#010101;" d="M10.938,56.568v2.298l1.074-1.115h1.008l-1.17,1.14l1.302,1.962H12.12l-0.852-1.387l-0.33,0.318
				v1.068h-0.852v-4.284H10.938z"/>
			<path style="fill:#010101;" d="M17.058,56.568c0.276,0,0.532,0.044,0.771,0.132s0.444,0.221,0.618,0.396
				c0.175,0.176,0.31,0.396,0.408,0.66c0.098,0.264,0.147,0.574,0.147,0.93c0,0.312-0.041,0.6-0.121,0.864
				c-0.08,0.264-0.201,0.491-0.362,0.684c-0.162,0.192-0.364,0.343-0.606,0.453s-0.527,0.165-0.854,0.165h-1.848v-4.284H17.058z
				 M16.991,60.06c0.136,0,0.269-0.022,0.396-0.065c0.129-0.045,0.242-0.117,0.343-0.22s0.18-0.235,0.239-0.399
				c0.061-0.164,0.091-0.363,0.091-0.6c0-0.216-0.021-0.41-0.063-0.585c-0.041-0.174-0.111-0.323-0.207-0.446
				c-0.096-0.125-0.223-0.22-0.381-0.285c-0.158-0.066-0.353-0.1-0.585-0.1h-0.672v2.7H16.991z"/>
			<path style="fill:#010101;" d="M19.583,58.629c0.076-0.202,0.185-0.375,0.324-0.516c0.14-0.143,0.308-0.253,0.504-0.33
				c0.196-0.078,0.416-0.117,0.66-0.117c0.243,0,0.465,0.039,0.663,0.117c0.197,0.077,0.367,0.188,0.507,0.33
				c0.14,0.141,0.248,0.313,0.324,0.516c0.075,0.201,0.114,0.427,0.114,0.675s-0.039,0.472-0.114,0.672
				c-0.076,0.2-0.185,0.371-0.324,0.513c-0.14,0.143-0.31,0.252-0.507,0.327c-0.198,0.076-0.42,0.114-0.663,0.114
				c-0.244,0-0.464-0.038-0.66-0.114c-0.196-0.075-0.364-0.185-0.504-0.327c-0.14-0.142-0.248-0.312-0.324-0.513
				c-0.075-0.2-0.114-0.424-0.114-0.672S19.508,58.831,19.583,58.629z M20.357,59.667c0.023,0.119,0.064,0.225,0.123,0.318
				c0.058,0.094,0.135,0.17,0.23,0.225c0.096,0.057,0.217,0.084,0.36,0.084s0.265-0.027,0.362-0.084
				c0.099-0.055,0.177-0.131,0.234-0.225c0.059-0.094,0.1-0.199,0.123-0.318c0.024-0.117,0.036-0.238,0.036-0.362
				s-0.012-0.246-0.036-0.366c-0.023-0.12-0.064-0.227-0.123-0.318c-0.058-0.092-0.136-0.166-0.234-0.225
				c-0.098-0.059-0.219-0.087-0.362-0.087s-0.265,0.028-0.36,0.087s-0.173,0.133-0.23,0.225c-0.059,0.092-0.1,0.198-0.123,0.318
				c-0.024,0.12-0.036,0.242-0.036,0.366S20.333,59.549,20.357,59.667z"/>
			<path style="fill:#010101;" d="M25.901,60.852L25.35,58.77h-0.012l-0.529,2.082h-0.881l-0.984-3.102h0.9l0.569,2.105h0.013
				l0.516-2.105h0.828l0.527,2.1h0.012l0.57-2.1h0.877l-0.979,3.102H25.901z"/>
			<path style="fill:#010101;" d="M28.925,57.75v0.432h0.019c0.107-0.18,0.248-0.311,0.42-0.393s0.348-0.123,0.527-0.123
				c0.229,0,0.416,0.031,0.562,0.093s0.261,0.147,0.345,0.258s0.143,0.244,0.178,0.401c0.033,0.158,0.051,0.334,0.051,0.525v1.908
				h-0.853V59.1c0-0.256-0.04-0.447-0.12-0.573s-0.222-0.188-0.426-0.188c-0.232,0-0.4,0.068-0.504,0.207
				c-0.104,0.138-0.156,0.365-0.156,0.681v1.626h-0.852V57.75H28.925z"/>
		</g>
		<g id="Flick_Down_2_">
			<g id="Tap__x28_Stroked_x29__7_">
				<path style="fill:#010101;" d="M1.468,16c-0.552,0-1-0.448-1-1c0-8.271,6.729-15,15.001-15c8.271,0,14.999,6.729,14.999,14.999
					c0,0.552-0.448,1-1,1s-1-0.448-1-1C28.468,7.832,22.637,2,15.469,2C8.3,2,2.468,7.832,2.468,15C2.468,15.552,2.02,16,1.468,16z"
					/>
				<path style="fill:#010101;" d="M15.468,8c-6.284,0-8.114,5.679-8.114,19.005v0.599C9.694,29.114,12.475,30,15.468,30
					c2.993,0,5.773-0.886,8.114-2.396v-0.599C23.582,13.679,21.752,8,15.468,8z M15.449,19.989c-6.018,0-5.127-7.311-5.127-7.311
					s1.026-2.315,5.127-2.315s5.17,2.315,5.17,2.315S21.464,19.989,15.449,19.989z"/>
			</g>
			<polygon style="fill:#010101;" points="20.468,41 20.468,38.438 16.468,41.639 16.468,35 14.468,35 14.468,41.639 10.468,38.438 
				10.468,41 15.469,45 			"/>
			<polygon id="Arrow_14_" style="fill:#010101;" points="15.468,48.444 10.468,44.438 10.468,47 15.469,51 20.468,47 
				20.468,44.438 			"/>
		</g>
	</g>
</g>
</svg>
