<?xml version="1.0" encoding="iso-8859-1"?>
<!-- Generator: Adobe Illustrator 15.1.0, SVG Export Plug-In . SVG Version: 6.00 Build 0)  -->
<!DOCTYPE svg PUBLIC "-//W3C//DTD SVG 1.1//EN" "http://www.w3.org/Graphics/SVG/1.1/DTD/svg11.dtd">
<svg version="1.1" xmlns="http://www.w3.org/2000/svg" xmlns:xlink="http://www.w3.org/1999/xlink" x="0px" y="0px" width="30px"
	 height="61.938px" viewBox="0 0 30 61.938" style="enable-background:new 0 0 30 61.938;" xml:space="preserve">
<g id="Layer_1">
</g>
<g id="Gestures">
	<g>
		<g>
			<path style="fill:#010101;" d="M6.765,56.568v0.792h-2.07v0.99h1.794v0.732H4.695v1.77H3.753v-4.284H6.765z"/>
			<path style="fill:#010101;" d="M8.098,56.568v4.284H7.246v-4.284H8.098z"/>
			<path style="fill:#010101;" d="M8.793,57.27v-0.702h0.852v0.702H8.793z M9.646,57.75v3.102H8.793V57.75H9.646z"/>
			<path style="fill:#010101;" d="M11.799,58.308c-0.136,0-0.25,0.03-0.342,0.093c-0.092,0.062-0.167,0.143-0.225,0.24
				c-0.058,0.098-0.099,0.206-0.123,0.324c-0.024,0.117-0.036,0.234-0.036,0.351c0,0.112,0.012,0.226,0.036,0.343
				c0.024,0.115,0.063,0.221,0.117,0.314c0.054,0.094,0.127,0.171,0.219,0.23c0.092,0.061,0.204,0.09,0.336,0.09
				c0.204,0,0.361-0.057,0.471-0.17c0.11-0.114,0.179-0.268,0.207-0.459h0.822c-0.056,0.412-0.216,0.726-0.48,0.941
				c-0.264,0.217-0.602,0.324-1.014,0.324c-0.232,0-0.445-0.039-0.639-0.117c-0.194-0.078-0.359-0.188-0.495-0.327
				c-0.136-0.14-0.242-0.307-0.318-0.501c-0.076-0.193-0.114-0.406-0.114-0.639c0-0.24,0.035-0.463,0.105-0.669
				s0.173-0.384,0.309-0.534c0.136-0.15,0.302-0.268,0.498-0.352c0.196-0.084,0.42-0.125,0.672-0.125
				c0.184,0,0.361,0.023,0.531,0.072c0.17,0.047,0.322,0.12,0.456,0.219c0.134,0.098,0.243,0.22,0.327,0.365
				c0.084,0.146,0.132,0.319,0.144,0.52h-0.834C12.373,58.486,12.163,58.308,11.799,58.308z"/>
			<path style="fill:#010101;" d="M14.691,56.568v2.298l1.074-1.115h1.008l-1.17,1.14l1.301,1.962h-1.031l-0.852-1.387l-0.33,0.318
				v1.068h-0.852v-4.284H14.691z"/>
			<path style="fill:#010101;" d="M22.113,60.525c-0.324,0.282-0.772,0.423-1.344,0.423c-0.58,0-1.029-0.14-1.348-0.42
				c-0.318-0.279-0.477-0.712-0.477-1.296v-2.664h0.941v2.664c0,0.116,0.01,0.229,0.03,0.343c0.021,0.111,0.062,0.211,0.126,0.297
				s0.152,0.155,0.268,0.209c0.113,0.055,0.266,0.082,0.459,0.082c0.336,0,0.567-0.076,0.695-0.226s0.191-0.385,0.191-0.705v-2.664
				h0.942v2.664C22.599,59.812,22.438,60.243,22.113,60.525z"/>
			<path style="fill:#010101;" d="M24.129,57.75v0.396h0.012c0.104-0.168,0.236-0.29,0.396-0.366s0.336-0.113,0.527-0.113
				c0.244,0,0.454,0.045,0.631,0.138c0.176,0.092,0.321,0.214,0.438,0.366c0.115,0.152,0.201,0.328,0.258,0.531
				c0.057,0.201,0.084,0.412,0.084,0.633c0,0.207-0.027,0.408-0.084,0.6s-0.141,0.361-0.255,0.51s-0.257,0.266-0.427,0.354
				c-0.17,0.089-0.368,0.133-0.596,0.133c-0.193,0-0.369-0.039-0.531-0.117s-0.295-0.193-0.399-0.345H24.17v1.47h-0.852V57.75
				H24.129z M25.236,60.209c0.094-0.055,0.17-0.129,0.228-0.219s0.099-0.195,0.122-0.314c0.025-0.12,0.037-0.242,0.037-0.366
				s-0.014-0.246-0.039-0.366c-0.026-0.119-0.069-0.227-0.129-0.32c-0.061-0.094-0.138-0.17-0.231-0.229
				c-0.095-0.059-0.209-0.087-0.345-0.087c-0.141,0-0.258,0.028-0.352,0.087s-0.17,0.133-0.228,0.225s-0.099,0.198-0.123,0.318
				s-0.036,0.244-0.036,0.372c0,0.124,0.014,0.246,0.039,0.366c0.025,0.119,0.068,0.225,0.126,0.314s0.135,0.164,0.231,0.219
				c0.096,0.057,0.211,0.084,0.348,0.084C25.024,60.293,25.142,60.266,25.236,60.209z"/>
		</g>
		<g id="Flick_Up_2_">
			<g id="Tap__x28_Stroked_x29__8_">
				<path style="fill:#010101;" d="M1,37c-0.553,0-1-0.448-1-1c0-8.271,6.729-15,15.001-15C23.271,21,30,27.729,30,35.999
					c0,0.553-0.447,1-1,1s-1-0.447-1-1C28,28.832,22.168,23,15.001,23C7.832,23,2,28.832,2,36C2,36.552,1.553,37,1,37z"/>
				<path style="fill:#010101;" d="M15,29c-6.284,0-8.114,5.678-8.114,19.004v0.6C9.227,50.114,12.008,51,15,51
					s5.773-0.887,8.114-2.396v-0.6C23.114,34.678,21.284,29,15,29z M14.981,40.989c-6.018,0-5.127-7.311-5.127-7.311
					s1.026-2.315,5.127-2.315s5.17,2.315,5.17,2.315S20.996,40.989,14.981,40.989z"/>
			</g>
			<polygon style="fill:#010101;" points="20,10 20,12.562 16,9.36 16,16 14,16 14,9.361 10,12.562 10,10 15.001,6 			"/>
			<polygon id="Arrow_15_" style="fill:#010101;" points="15,2.557 10,6.562 10,4 15.001,0 20,4 20,6.562 			"/>
		</g>
	</g>
</g>
</svg>
