<?xml version="1.0" encoding="iso-8859-1"?>
<!-- Generator: Adobe Illustrator 15.1.0, SVG Export Plug-In . SVG Version: 6.00 Build 0)  -->
<!DOCTYPE svg PUBLIC "-//W3C//DTD SVG 1.1//EN" "http://www.w3.org/Graphics/SVG/1.1/DTD/svg11.dtd">
<svg version="1.1" xmlns="http://www.w3.org/2000/svg" xmlns:xlink="http://www.w3.org/1999/xlink" x="0px" y="0px" width="51px"
	 height="39.93px" viewBox="0 0 51 39.93" style="enable-background:new 0 0 51 39.93;" xml:space="preserve">
<g id="Layer_1">
</g>
<g id="Gestures">
	<g>
		<g>
			<path style="fill:#010101;" d="M26.265,35.568v0.792h-2.07v0.99h1.794v0.732h-1.794v1.77h-0.942v-4.284H26.265z"/>
			<path style="fill:#010101;" d="M27.598,35.568v4.284h-0.852v-4.284H27.598z"/>
			<path style="fill:#010101;" d="M28.294,36.27v-0.702h0.852v0.702H28.294z M29.146,36.75v3.102h-0.852V36.75H29.146z"/>
			<path style="fill:#010101;" d="M31.3,37.308c-0.137,0-0.25,0.03-0.343,0.093c-0.092,0.062-0.167,0.143-0.226,0.24
				c-0.057,0.098-0.098,0.206-0.122,0.324c-0.024,0.117-0.036,0.234-0.036,0.351c0,0.112,0.012,0.226,0.036,0.343
				c0.024,0.115,0.063,0.221,0.116,0.314c0.055,0.094,0.127,0.171,0.22,0.23c0.092,0.061,0.204,0.09,0.336,0.09
				c0.204,0,0.36-0.057,0.471-0.17c0.11-0.114,0.179-0.268,0.207-0.459h0.822c-0.056,0.412-0.216,0.726-0.479,0.941
				c-0.265,0.217-0.603,0.324-1.015,0.324c-0.231,0-0.444-0.039-0.64-0.117c-0.193-0.078-0.358-0.188-0.494-0.327
				c-0.137-0.14-0.242-0.307-0.318-0.501c-0.076-0.193-0.113-0.406-0.113-0.639c0-0.24,0.035-0.463,0.104-0.669
				s0.173-0.384,0.31-0.534c0.135-0.15,0.301-0.268,0.498-0.352c0.195-0.084,0.42-0.125,0.672-0.125c0.184,0,0.36,0.023,0.53,0.072
				c0.171,0.047,0.322,0.12,0.456,0.219c0.135,0.098,0.243,0.22,0.327,0.365c0.084,0.146,0.132,0.319,0.144,0.52h-0.834
				C31.873,37.486,31.663,37.308,31.3,37.308z"/>
			<path style="fill:#010101;" d="M34.19,35.568v2.298l1.074-1.115h1.008l-1.17,1.14l1.303,1.962h-1.032l-0.853-1.387l-0.33,0.318
				v1.068h-0.852v-4.284H34.19z"/>
			<path style="fill:#010101;" d="M39.405,35.568v3.492h2.088v0.792h-3.03v-4.284H39.405z"/>
			<path style="fill:#010101;" d="M42.843,39.108c0.128,0.124,0.312,0.186,0.553,0.186c0.172,0,0.319-0.043,0.443-0.129
				s0.2-0.176,0.229-0.272h0.75c-0.121,0.372-0.305,0.638-0.553,0.798s-0.548,0.24-0.9,0.24c-0.243,0-0.463-0.039-0.659-0.117
				s-0.362-0.189-0.498-0.333s-0.241-0.315-0.315-0.517c-0.074-0.199-0.111-0.42-0.111-0.659c0-0.231,0.039-0.448,0.115-0.647
				c0.075-0.201,0.184-0.373,0.323-0.52s0.308-0.262,0.501-0.346c0.194-0.084,0.409-0.125,0.645-0.125
				c0.265,0,0.494,0.051,0.691,0.152c0.195,0.102,0.356,0.239,0.482,0.411s0.217,0.368,0.273,0.588c0.055,0.22,0.075,0.45,0.06,0.69
				h-2.238C42.646,38.784,42.715,38.984,42.843,39.108z M43.806,37.476c-0.102-0.112-0.257-0.168-0.465-0.168
				c-0.136,0-0.249,0.022-0.339,0.069c-0.09,0.045-0.162,0.103-0.216,0.17c-0.055,0.068-0.092,0.141-0.114,0.217
				s-0.035,0.145-0.039,0.204h1.386C43.979,37.752,43.907,37.588,43.806,37.476z"/>
			<path style="fill:#010101;" d="M45.051,37.32V36.75h0.51v-0.24c0-0.276,0.087-0.502,0.259-0.678s0.432-0.265,0.779-0.265
				c0.076,0,0.152,0.003,0.229,0.009s0.149,0.012,0.222,0.016v0.636c-0.101-0.013-0.204-0.019-0.312-0.019
				c-0.117,0-0.199,0.027-0.25,0.082c-0.05,0.054-0.074,0.145-0.074,0.272v0.187h0.588v0.569h-0.588v2.532h-0.853V37.32H45.051z"/>
			<path style="fill:#010101;" d="M49.077,36.75v0.569h-0.625v1.536c0,0.145,0.025,0.24,0.072,0.288
				c0.049,0.048,0.145,0.071,0.289,0.071c0.047,0,0.094-0.002,0.137-0.006c0.045-0.004,0.086-0.01,0.127-0.018v0.66
				c-0.072,0.012-0.152,0.02-0.24,0.023s-0.174,0.006-0.258,0.006c-0.133,0-0.258-0.008-0.375-0.026
				c-0.118-0.019-0.223-0.053-0.312-0.104c-0.09-0.053-0.16-0.127-0.213-0.223c-0.052-0.096-0.078-0.222-0.078-0.378v-1.83h-0.516
				V36.75h0.516V35.82h0.852v0.931H49.077z"/>
		</g>
		<g id="Flick_Left_2_">
			<g id="Tap__x28_Stroked_x29__5_">
				<path style="fill:#010101;" d="M22,16c-0.552,0-1-0.448-1-1c0-8.271,6.729-15,15.001-15C44.271,0,51,6.729,51,14.999
					c0,0.552-0.448,1-1,1s-1-0.448-1-1C49,7.832,43.169,2,36.001,2C28.832,2,23,7.832,23,15C23,15.552,22.552,16,22,16z"/>
				<path style="fill:#010101;" d="M36,8c-6.284,0-8.114,5.679-8.114,19.004v0.6C30.227,29.114,33.007,30,36,30
					s5.773-0.887,8.114-2.396v-0.6C44.114,13.679,42.284,8,36,8z M35.981,19.989c-6.018,0-5.127-7.311-5.127-7.311
					s1.026-2.315,5.127-2.315s5.17,2.315,5.17,2.315S41.996,19.989,35.981,19.989z"/>
			</g>
			<polygon style="fill:#010101;" points="10,10 12.562,10 9.36,14 16,14 16,16 9.361,16 12.562,20 10,20 6,14.999 			"/>
			<polygon id="Arrow_12_" style="fill:#010101;" points="2.557,15 6.562,20 4,20 0,14.999 4,10 6.562,10 			"/>
		</g>
	</g>
</g>
</svg>
