<?xml version="1.0" encoding="iso-8859-1"?>
<!-- Generator: Adobe Illustrator 15.1.0, SVG Export Plug-In . SVG Version: 6.00 Build 0)  -->
<!DOCTYPE svg PUBLIC "-//W3C//DTD SVG 1.1//EN" "http://www.w3.org/Graphics/SVG/1.1/DTD/svg11.dtd">
<svg version="1.1" xmlns="http://www.w3.org/2000/svg" xmlns:xlink="http://www.w3.org/1999/xlink" x="0px" y="0px" width="51px"
	 height="41.022px" viewBox="0 0 51 41.022" style="enable-background:new 0 0 51 41.022;" xml:space="preserve">
<g id="Layer_1">
</g>
<g id="Gestures">
	<g>
		<g>
			<path style="fill:#010101;" d="M3.213,35.568v0.792h-2.07v0.99h1.794v0.732H1.143v1.77H0.201v-4.284H3.213z"/>
			<path style="fill:#010101;" d="M4.545,35.568v4.284H3.693v-4.284H4.545z"/>
			<path style="fill:#010101;" d="M5.241,36.27v-0.702h0.852v0.702H5.241z M6.093,36.75v3.102H5.241V36.75H6.093z"/>
			<path style="fill:#010101;" d="M8.247,37.308c-0.136,0-0.25,0.03-0.342,0.093c-0.092,0.062-0.167,0.143-0.225,0.24
				c-0.058,0.098-0.099,0.206-0.123,0.324c-0.024,0.117-0.036,0.234-0.036,0.351c0,0.112,0.012,0.226,0.036,0.343
				c0.024,0.115,0.063,0.221,0.117,0.314c0.054,0.094,0.127,0.171,0.219,0.23c0.092,0.061,0.204,0.09,0.336,0.09
				c0.204,0,0.361-0.057,0.471-0.17c0.11-0.114,0.179-0.268,0.207-0.459h0.822c-0.056,0.412-0.216,0.726-0.48,0.941
				c-0.264,0.217-0.602,0.324-1.014,0.324c-0.232,0-0.445-0.039-0.639-0.117c-0.194-0.078-0.359-0.188-0.495-0.327
				c-0.136-0.14-0.242-0.307-0.318-0.501c-0.076-0.193-0.114-0.406-0.114-0.639c0-0.24,0.035-0.463,0.105-0.669
				s0.173-0.384,0.309-0.534c0.136-0.15,0.302-0.268,0.498-0.352c0.196-0.084,0.42-0.125,0.672-0.125
				c0.184,0,0.361,0.023,0.531,0.072c0.17,0.047,0.322,0.12,0.456,0.219c0.134,0.098,0.243,0.22,0.327,0.365
				c0.084,0.146,0.132,0.319,0.144,0.52H8.877C8.821,37.486,8.611,37.308,8.247,37.308z"/>
			<path style="fill:#010101;" d="M11.139,35.568v2.298l1.074-1.115h1.008l-1.17,1.14l1.302,1.962h-1.032l-0.852-1.387l-0.33,0.318
				v1.068h-0.852v-4.284H11.139z"/>
			<path style="fill:#010101;" d="M17.721,35.568c0.192,0,0.365,0.031,0.519,0.093c0.154,0.062,0.286,0.147,0.396,0.256
				c0.11,0.107,0.194,0.232,0.252,0.375c0.058,0.142,0.087,0.295,0.087,0.459c0,0.252-0.053,0.47-0.159,0.653
				c-0.106,0.185-0.279,0.324-0.519,0.421v0.012c0.116,0.031,0.212,0.08,0.288,0.146c0.076,0.066,0.138,0.145,0.186,0.234
				s0.083,0.189,0.105,0.297s0.037,0.216,0.045,0.324c0.004,0.068,0.008,0.147,0.012,0.24c0.004,0.092,0.011,0.186,0.021,0.281
				c0.01,0.096,0.026,0.188,0.048,0.273s0.055,0.158,0.099,0.219h-0.942c-0.052-0.136-0.084-0.298-0.096-0.486
				c-0.012-0.188-0.03-0.367-0.054-0.539c-0.032-0.225-0.1-0.389-0.204-0.492c-0.104-0.104-0.274-0.156-0.51-0.156h-0.942v1.674
				h-0.942v-4.284H17.721z M17.385,37.506c0.216,0,0.378-0.049,0.486-0.145s0.162-0.252,0.162-0.468
				c0-0.208-0.054-0.358-0.162-0.453c-0.108-0.094-0.27-0.141-0.486-0.141h-1.032v1.206H17.385z"/>
			<path style="fill:#010101;" d="M19.677,36.27v-0.702h0.852v0.702H19.677z M20.529,36.75v3.102h-0.852V36.75H20.529z"/>
			<path style="fill:#010101;" d="M24.131,40.081c-0.034,0.159-0.107,0.309-0.219,0.446c-0.112,0.138-0.274,0.255-0.486,0.351
				c-0.212,0.097-0.496,0.145-0.852,0.145c-0.152,0-0.307-0.02-0.465-0.057c-0.158-0.039-0.302-0.098-0.432-0.178
				c-0.13-0.08-0.238-0.183-0.324-0.309s-0.135-0.277-0.147-0.453h0.846c0.04,0.16,0.118,0.271,0.234,0.333
				c0.116,0.062,0.25,0.093,0.402,0.093c0.24,0,0.415-0.072,0.525-0.216s0.163-0.325,0.159-0.546v-0.408H23.36
				c-0.092,0.164-0.223,0.285-0.393,0.363s-0.349,0.117-0.537,0.117c-0.232,0-0.432-0.041-0.6-0.123s-0.306-0.193-0.414-0.336
				s-0.187-0.309-0.237-0.498c-0.05-0.189-0.075-0.391-0.075-0.604c0-0.199,0.029-0.393,0.087-0.578
				c0.058-0.187,0.143-0.351,0.255-0.492c0.112-0.143,0.251-0.256,0.417-0.34s0.357-0.125,0.573-0.125
				c0.204,0,0.383,0.037,0.537,0.113c0.154,0.076,0.283,0.204,0.387,0.385h0.012V36.75h0.81v2.903
				C24.183,39.778,24.166,39.92,24.131,40.081z M22.964,39.047c0.092-0.047,0.168-0.111,0.228-0.191s0.105-0.171,0.135-0.273
				c0.03-0.102,0.045-0.209,0.045-0.32c0-0.128-0.012-0.249-0.036-0.363c-0.024-0.113-0.064-0.215-0.12-0.303
				c-0.056-0.088-0.13-0.158-0.222-0.21c-0.092-0.052-0.208-0.078-0.348-0.078c-0.12,0-0.223,0.024-0.309,0.071
				c-0.086,0.049-0.158,0.113-0.216,0.195c-0.058,0.082-0.1,0.176-0.126,0.282c-0.026,0.106-0.039,0.218-0.039,0.333
				c0,0.112,0.011,0.223,0.033,0.333s0.06,0.209,0.114,0.297c0.054,0.089,0.125,0.16,0.213,0.216
				c0.088,0.057,0.198,0.084,0.33,0.084C22.767,39.12,22.873,39.096,22.964,39.047z"/>
			<path style="fill:#010101;" d="M25.718,35.568v1.614h0.018c0.108-0.18,0.246-0.311,0.414-0.393s0.332-0.123,0.492-0.123
				c0.228,0,0.415,0.031,0.562,0.093c0.146,0.062,0.26,0.147,0.344,0.258s0.144,0.244,0.178,0.401
				c0.033,0.158,0.051,0.334,0.051,0.525v1.908h-0.852V38.1c0-0.256-0.04-0.447-0.12-0.573c-0.08-0.126-0.222-0.188-0.426-0.188
				c-0.232,0-0.4,0.068-0.504,0.207c-0.104,0.138-0.156,0.365-0.156,0.681v1.626h-0.852v-4.284H25.718z"/>
			<path style="fill:#010101;" d="M30.128,36.75v0.569h-0.623v1.536c0,0.145,0.023,0.24,0.072,0.288
				c0.047,0.048,0.144,0.071,0.287,0.071c0.049,0,0.094-0.002,0.139-0.006c0.043-0.004,0.086-0.01,0.125-0.018v0.66
				c-0.071,0.012-0.151,0.02-0.239,0.023s-0.175,0.006-0.259,0.006c-0.131,0-0.256-0.008-0.375-0.026
				c-0.117-0.019-0.221-0.053-0.312-0.104c-0.09-0.053-0.161-0.127-0.213-0.223s-0.078-0.222-0.078-0.378v-1.83h-0.516V36.75h0.516
				V35.82h0.853v0.931H30.128z"/>
		</g>
		<g id="Flick_Right_2_">
			<g id="Tap__x28_Stroked_x29__4_">
				<path style="fill:#010101;" d="M1,16c-0.552,0-1-0.448-1-1C0,6.729,6.729,0,15.001,0C23.271,0,30,6.729,30,14.999
					c0,0.552-0.448,1-1,1s-1-0.448-1-1C28,7.832,22.168,2,15.001,2C7.832,2,2,7.832,2,15C2,15.552,1.552,16,1,16z"/>
				<path style="fill:#010101;" d="M15,8c-6.284,0-8.114,5.679-8.114,19.004v0.6C9.227,29.114,12.007,30,15,30
					s5.773-0.887,8.114-2.396v-0.6C23.114,13.679,21.284,8,15,8z M14.981,19.989c-6.018,0-5.127-7.311-5.127-7.311
					s1.026-2.315,5.127-2.315s5.17,2.315,5.17,2.315S20.996,19.989,14.981,19.989z"/>
			</g>
			<polygon style="fill:#010101;" points="41,10 38.438,10 41.64,14 35,14 35,16 41.639,16 38.438,20 41,20 45,14.999 			"/>
			<polygon id="Arrow_11_" style="fill:#010101;" points="48.443,15 44.438,20 47,20 51,14.999 47,10 44.438,10 			"/>
		</g>
	</g>
</g>
</svg>
