<?xml version="1.0" encoding="iso-8859-1"?>
<!-- Generator: Adobe Illustrator 15.1.0, SVG Export Plug-In . SVG Version: 6.00 Build 0)  -->
<!DOCTYPE svg PUBLIC "-//W3C//DTD SVG 1.1//EN" "http://www.w3.org/Graphics/SVG/1.1/DTD/svg11.dtd">
<svg version="1.1" xmlns="http://www.w3.org/2000/svg" xmlns:xlink="http://www.w3.org/1999/xlink" x="0px" y="0px" width="72px"
	 height="39.861px" viewBox="0 0 72 39.861" style="enable-background:new 0 0 72 39.861;" xml:space="preserve">
<g id="Layer_1">
</g>
<g id="Gestures">
	<g>
		<g>
			<path style="fill:#010101;" d="M15.033,35.499v1.644h1.734v-1.644h0.942v4.284h-0.942v-1.848h-1.734v1.848h-0.942v-4.284H15.033z
				"/>
			<path style="fill:#010101;" d="M18.465,37.561c0.076-0.202,0.184-0.375,0.324-0.516c0.14-0.143,0.308-0.253,0.504-0.33
				c0.196-0.078,0.416-0.117,0.66-0.117c0.244,0,0.465,0.039,0.663,0.117c0.198,0.077,0.367,0.188,0.507,0.33
				c0.14,0.141,0.248,0.313,0.324,0.516c0.076,0.201,0.114,0.427,0.114,0.675s-0.038,0.472-0.114,0.672
				c-0.076,0.2-0.184,0.371-0.324,0.513c-0.14,0.143-0.309,0.252-0.507,0.327c-0.198,0.076-0.419,0.114-0.663,0.114
				c-0.244,0-0.464-0.038-0.66-0.114c-0.196-0.075-0.364-0.185-0.504-0.327c-0.14-0.142-0.248-0.312-0.324-0.513
				c-0.076-0.2-0.114-0.424-0.114-0.672S18.389,37.762,18.465,37.561z M19.239,38.598c0.024,0.119,0.065,0.225,0.123,0.318
				c0.058,0.094,0.135,0.17,0.231,0.225c0.096,0.057,0.216,0.084,0.36,0.084s0.265-0.027,0.363-0.084
				c0.098-0.055,0.176-0.131,0.234-0.225c0.058-0.094,0.099-0.199,0.123-0.318c0.024-0.117,0.036-0.238,0.036-0.362
				s-0.012-0.246-0.036-0.366c-0.024-0.12-0.065-0.227-0.123-0.318c-0.058-0.092-0.136-0.166-0.234-0.225s-0.219-0.087-0.363-0.087
				s-0.264,0.028-0.36,0.087c-0.096,0.059-0.173,0.133-0.231,0.225c-0.058,0.092-0.099,0.198-0.123,0.318
				c-0.024,0.12-0.036,0.242-0.036,0.366S19.215,38.48,19.239,38.598z"/>
			<path style="fill:#010101;" d="M22.923,36.682v0.576h0.012c0.04-0.097,0.094-0.186,0.162-0.268
				c0.068-0.082,0.146-0.152,0.234-0.21s0.182-0.103,0.282-0.136c0.1-0.031,0.204-0.047,0.312-0.047c0.056,0,0.118,0.01,0.186,0.029
				v0.793c-0.04-0.009-0.088-0.016-0.144-0.021c-0.056-0.006-0.11-0.01-0.162-0.01c-0.156,0-0.288,0.026-0.396,0.078
				c-0.108,0.053-0.195,0.123-0.261,0.213s-0.113,0.195-0.141,0.315c-0.028,0.12-0.042,0.25-0.042,0.39v1.398h-0.852v-3.102H22.923z
				"/>
			<path style="fill:#010101;" d="M24.471,36.201v-0.702h0.852v0.702H24.471z M25.323,36.682v3.102h-0.852v-3.102H25.323z"/>
			<path style="fill:#010101;" d="M27.417,37.323h-1.494v-0.642h2.616v0.642l-1.614,1.817h1.728v0.643h-2.85v-0.643L27.417,37.323z"
				/>
			<path style="fill:#010101;" d="M29.126,37.561c0.076-0.202,0.184-0.375,0.324-0.516c0.14-0.143,0.308-0.253,0.504-0.33
				c0.196-0.078,0.416-0.117,0.66-0.117c0.244,0,0.465,0.039,0.663,0.117c0.198,0.077,0.367,0.188,0.507,0.33
				c0.14,0.141,0.248,0.313,0.324,0.516c0.076,0.201,0.114,0.427,0.114,0.675s-0.038,0.472-0.114,0.672
				c-0.076,0.2-0.184,0.371-0.324,0.513c-0.14,0.143-0.309,0.252-0.507,0.327c-0.198,0.076-0.419,0.114-0.663,0.114
				c-0.244,0-0.464-0.038-0.66-0.114c-0.196-0.075-0.364-0.185-0.504-0.327c-0.14-0.142-0.248-0.312-0.324-0.513
				c-0.076-0.2-0.114-0.424-0.114-0.672S29.051,37.762,29.126,37.561z M29.901,38.598c0.024,0.119,0.065,0.225,0.123,0.318
				c0.058,0.094,0.135,0.17,0.231,0.225c0.096,0.057,0.216,0.084,0.36,0.084s0.265-0.027,0.363-0.084
				c0.098-0.055,0.176-0.131,0.234-0.225c0.058-0.094,0.099-0.199,0.123-0.318c0.024-0.117,0.036-0.238,0.036-0.362
				s-0.012-0.246-0.036-0.366c-0.024-0.12-0.065-0.227-0.123-0.318c-0.058-0.092-0.136-0.166-0.234-0.225s-0.219-0.087-0.363-0.087
				s-0.264,0.028-0.36,0.087c-0.096,0.059-0.173,0.133-0.231,0.225c-0.058,0.092-0.099,0.198-0.123,0.318
				c-0.024,0.12-0.036,0.242-0.036,0.366S29.876,38.48,29.901,38.598z"/>
			<path style="fill:#010101;" d="M33.584,36.682v0.432h0.018c0.108-0.18,0.248-0.311,0.42-0.393
				c0.172-0.082,0.348-0.123,0.528-0.123c0.228,0,0.415,0.031,0.561,0.093s0.261,0.147,0.345,0.258s0.143,0.244,0.177,0.401
				c0.034,0.158,0.051,0.334,0.051,0.525v1.908h-0.852v-1.752c0-0.256-0.04-0.447-0.12-0.573c-0.08-0.126-0.222-0.188-0.426-0.188
				c-0.232,0-0.4,0.068-0.504,0.207c-0.104,0.138-0.156,0.365-0.156,0.681v1.626h-0.852v-3.102H33.584z"/>
			<path style="fill:#010101;" d="M38.037,36.682v0.569h-0.625v1.536c0,0.145,0.025,0.24,0.072,0.288
				c0.049,0.048,0.145,0.071,0.289,0.071c0.047,0,0.094-0.002,0.137-0.006c0.045-0.004,0.086-0.01,0.127-0.018v0.66
				c-0.072,0.012-0.152,0.02-0.24,0.023s-0.174,0.006-0.258,0.006c-0.133,0-0.258-0.008-0.375-0.026
				c-0.118-0.019-0.222-0.053-0.312-0.104c-0.09-0.053-0.161-0.127-0.213-0.223c-0.052-0.096-0.078-0.222-0.078-0.378v-1.83h-0.516
				v-0.569h0.516v-0.931h0.852v0.931H38.037z"/>
			<path style="fill:#010101;" d="M38.559,37.137c0.088-0.131,0.2-0.237,0.336-0.317c0.137-0.08,0.289-0.138,0.459-0.171
				c0.17-0.034,0.341-0.051,0.514-0.051c0.155,0,0.313,0.011,0.474,0.033c0.159,0.021,0.306,0.064,0.438,0.129
				c0.131,0.063,0.239,0.152,0.323,0.267s0.126,0.265,0.126,0.452v1.615c0,0.14,0.008,0.273,0.023,0.401
				c0.017,0.128,0.045,0.224,0.084,0.288h-0.863c-0.016-0.048-0.029-0.098-0.039-0.146c-0.01-0.051-0.018-0.102-0.021-0.153
				c-0.136,0.14-0.295,0.237-0.479,0.294c-0.185,0.056-0.372,0.084-0.563,0.084c-0.148,0-0.287-0.018-0.414-0.055
				c-0.129-0.035-0.24-0.092-0.336-0.168c-0.097-0.075-0.172-0.172-0.226-0.287c-0.054-0.116-0.081-0.254-0.081-0.414
				c0-0.176,0.031-0.321,0.094-0.436c0.062-0.113,0.141-0.205,0.239-0.273c0.099-0.067,0.21-0.118,0.336-0.152
				c0.126-0.033,0.253-0.061,0.382-0.081c0.127-0.021,0.254-0.036,0.377-0.048c0.125-0.012,0.234-0.03,0.33-0.055
				c0.096-0.023,0.172-0.059,0.229-0.104c0.056-0.046,0.082-0.112,0.078-0.2c0-0.093-0.016-0.166-0.045-0.22
				c-0.03-0.054-0.07-0.097-0.121-0.126c-0.049-0.029-0.107-0.05-0.174-0.061c-0.065-0.01-0.137-0.015-0.213-0.015
				c-0.168,0-0.3,0.036-0.396,0.108c-0.097,0.072-0.152,0.191-0.168,0.359h-0.853C38.42,37.436,38.471,37.27,38.559,37.137z
				 M40.242,38.34c-0.055,0.019-0.113,0.033-0.175,0.045s-0.127,0.022-0.194,0.03c-0.068,0.009-0.137,0.019-0.205,0.03
				c-0.063,0.012-0.127,0.027-0.188,0.048s-0.116,0.047-0.162,0.081s-0.083,0.077-0.11,0.129c-0.028,0.053-0.043,0.118-0.043,0.198
				c0,0.075,0.015,0.14,0.043,0.192c0.027,0.051,0.065,0.092,0.113,0.123c0.049,0.029,0.104,0.051,0.168,0.062
				c0.064,0.012,0.131,0.018,0.198,0.018c0.168,0,0.298-0.027,0.39-0.084c0.092-0.056,0.16-0.123,0.205-0.201
				c0.043-0.078,0.07-0.156,0.08-0.236s0.016-0.145,0.016-0.192v-0.317C40.341,38.297,40.295,38.322,40.242,38.34z"/>
			<path style="fill:#010101;" d="M42.765,35.499v4.284h-0.853v-4.284H42.765z"/>
			<path style="fill:#010101;" d="M48.206,35.499v0.792h-2.069v0.99h1.793v0.732h-1.793v1.77h-0.942v-4.284H48.206z"/>
			<path style="fill:#010101;" d="M49.539,35.499v4.284h-0.853v-4.284H49.539z"/>
			<path style="fill:#010101;" d="M50.234,36.201v-0.702h0.852v0.702H50.234z M51.086,36.682v3.102h-0.852v-3.102H51.086z"/>
			<path style="fill:#010101;" d="M53.24,37.239c-0.137,0-0.25,0.03-0.342,0.093s-0.168,0.143-0.226,0.24s-0.099,0.206-0.122,0.324
				c-0.025,0.117-0.037,0.234-0.037,0.351c0,0.112,0.012,0.226,0.037,0.343c0.023,0.115,0.062,0.221,0.116,0.314
				s0.127,0.171,0.22,0.23c0.092,0.061,0.203,0.09,0.336,0.09c0.203,0,0.36-0.057,0.471-0.17c0.109-0.114,0.179-0.268,0.207-0.459
				h0.822c-0.057,0.412-0.217,0.726-0.48,0.941c-0.264,0.217-0.602,0.324-1.014,0.324c-0.232,0-0.445-0.039-0.64-0.117
				s-0.358-0.188-0.495-0.327c-0.136-0.14-0.242-0.307-0.318-0.501c-0.075-0.193-0.113-0.406-0.113-0.639
				c0-0.24,0.035-0.463,0.105-0.669c0.069-0.206,0.172-0.384,0.309-0.534c0.136-0.15,0.302-0.268,0.498-0.352
				c0.195-0.084,0.42-0.125,0.672-0.125c0.184,0,0.361,0.023,0.531,0.072c0.17,0.047,0.322,0.12,0.455,0.219
				c0.135,0.098,0.244,0.22,0.328,0.365c0.084,0.146,0.131,0.319,0.144,0.52H53.87C53.814,37.417,53.604,37.239,53.24,37.239z"/>
			<path style="fill:#010101;" d="M56.132,35.499v2.298l1.074-1.115h1.008l-1.17,1.14l1.302,1.962h-1.031l-0.853-1.387l-0.33,0.318
				v1.068h-0.853v-4.284H56.132z"/>
		</g>
		<g id="Flick_Horizontally_2_">
			<g id="Tap__x28_Stroked_x29__3_">
				<path style="fill:#010101;" d="M22,16c-0.552,0-1-0.448-1-1c0-8.271,6.729-15,15.001-15C44.271,0,51,6.729,51,14.999
					c0,0.552-0.447,1-1,1s-1-0.448-1-1C49,7.832,43.168,2,36.001,2C28.832,2,23,7.832,23,15C23,15.552,22.552,16,22,16z"/>
				<path style="fill:#010101;" d="M36,8c-6.284,0-8.114,5.679-8.114,19.005v0.599C30.227,29.113,33.007,30,36,30
					c2.992,0,5.773-0.887,8.114-2.396v-0.599C44.114,13.679,42.284,8,36,8z M35.981,19.989c-6.018,0-5.127-7.311-5.127-7.311
					s1.026-2.315,5.127-2.315s5.17,2.315,5.17,2.315S41.996,19.989,35.981,19.989z"/>
			</g>
			<polygon style="fill:#010101;" points="62,10 59.438,10 62.64,14 56,14 56,16 62.639,16 59.438,20 62,20 66,14.999 			"/>
			<polygon id="Arrow_10_" style="fill:#010101;" points="69.443,15 65.438,20 68,20 72,14.999 68,10 65.438,10 			"/>
			<polygon style="fill:#010101;" points="10,10 12.562,10 9.36,14 16,14 16,16 9.361,16 12.562,20 10,20 6,14.999 			"/>
			<polygon id="Arrow_8_" style="fill:#010101;" points="2.557,15 6.562,20 4,20 0,14.999 4,10 6.562,10 			"/>
		</g>
	</g>
</g>
</svg>
