<?xml version="1.0" encoding="iso-8859-1"?>
<!-- Generator: Adobe Illustrator 15.1.0, SVG Export Plug-In . SVG Version: 6.00 Build 0)  -->
<!DOCTYPE svg PUBLIC "-//W3C//DTD SVG 1.1//EN" "http://www.w3.org/Graphics/SVG/1.1/DTD/svg11.dtd">
<svg version="1.1" xmlns="http://www.w3.org/2000/svg" xmlns:xlink="http://www.w3.org/1999/xlink" x="0px" y="0px" width="72px"
	 height="89.13px" viewBox="0 0 72 89.13" style="enable-background:new 0 0 72 89.13;" xml:space="preserve">
<g id="Layer_1">
</g>
<g id="Gestures">
	<g>
		<g>
			<path style="fill:#010101;" d="M13.666,78.837c0.096-0.273,0.234-0.513,0.414-0.717c0.18-0.204,0.401-0.363,0.663-0.48
				c0.262-0.115,0.557-0.174,0.885-0.174c0.332,0,0.628,0.059,0.888,0.174c0.26,0.117,0.48,0.276,0.66,0.48
				c0.18,0.204,0.318,0.443,0.414,0.717c0.096,0.273,0.144,0.571,0.144,0.891c0,0.312-0.048,0.604-0.144,0.873
				c-0.096,0.271-0.234,0.506-0.414,0.705c-0.18,0.201-0.4,0.357-0.66,0.471c-0.26,0.115-0.556,0.172-0.888,0.172
				c-0.328,0-0.623-0.057-0.885-0.172c-0.262-0.113-0.483-0.27-0.663-0.471c-0.18-0.199-0.318-0.435-0.414-0.705
				c-0.096-0.27-0.144-0.561-0.144-0.873C13.521,79.408,13.569,79.11,13.666,78.837z M14.526,80.253
				c0.042,0.17,0.109,0.323,0.201,0.459c0.092,0.137,0.212,0.245,0.36,0.327s0.328,0.123,0.54,0.123s0.392-0.041,0.54-0.123
				s0.268-0.19,0.36-0.327c0.092-0.136,0.159-0.289,0.201-0.459s0.063-0.345,0.063-0.525c0-0.188-0.021-0.369-0.063-0.545
				c-0.042-0.177-0.109-0.334-0.201-0.472c-0.092-0.138-0.212-0.248-0.36-0.33c-0.148-0.081-0.328-0.123-0.54-0.123
				s-0.392,0.042-0.54,0.123c-0.148,0.082-0.268,0.192-0.36,0.33c-0.092,0.138-0.159,0.295-0.201,0.472
				c-0.042,0.176-0.063,0.357-0.063,0.545C14.463,79.908,14.484,80.083,14.526,80.253z"/>
			<path style="fill:#010101;" d="M19.113,78.75v0.42h0.012c0.112-0.159,0.247-0.284,0.405-0.372
				c0.158-0.088,0.339-0.132,0.543-0.132c0.196,0,0.375,0.038,0.537,0.114s0.285,0.21,0.369,0.402
				c0.092-0.137,0.217-0.256,0.375-0.36c0.158-0.104,0.345-0.156,0.561-0.156c0.164,0,0.316,0.021,0.456,0.06
				c0.14,0.041,0.26,0.104,0.36,0.192s0.178,0.203,0.234,0.345c0.056,0.143,0.084,0.313,0.084,0.514v2.076h-0.852v-1.758
				c0-0.104-0.004-0.203-0.012-0.295c-0.008-0.092-0.03-0.172-0.066-0.24c-0.036-0.067-0.089-0.121-0.159-0.162
				c-0.07-0.039-0.165-0.06-0.285-0.06c-0.12,0-0.217,0.023-0.291,0.069c-0.074,0.046-0.132,0.105-0.174,0.18
				s-0.07,0.158-0.084,0.252s-0.021,0.189-0.021,0.285v1.729h-0.852v-1.74c0-0.092-0.002-0.184-0.006-0.273
				c-0.004-0.09-0.021-0.173-0.051-0.249c-0.03-0.075-0.08-0.137-0.15-0.183s-0.173-0.069-0.309-0.069
				c-0.04,0-0.093,0.009-0.159,0.027c-0.066,0.018-0.13,0.052-0.192,0.103c-0.062,0.049-0.115,0.121-0.159,0.215
				s-0.066,0.217-0.066,0.369v1.801H18.31V78.75H19.113z"/>
			<path style="fill:#010101;" d="M24.531,78.75v0.433h0.018c0.108-0.181,0.248-0.312,0.42-0.394
				c0.172-0.082,0.348-0.123,0.528-0.123c0.228,0,0.415,0.031,0.561,0.093c0.146,0.062,0.261,0.148,0.345,0.258
				c0.084,0.11,0.143,0.244,0.177,0.402c0.034,0.158,0.051,0.333,0.051,0.525v1.908h-0.852v-1.752c0-0.256-0.04-0.447-0.12-0.574
				c-0.08-0.125-0.222-0.188-0.426-0.188c-0.232,0-0.4,0.069-0.504,0.207s-0.156,0.365-0.156,0.681v1.627h-0.852V78.75H24.531z"/>
			<path style="fill:#010101;" d="M27.304,78.271v-0.703h0.852v0.703H27.304z M28.156,78.75v3.103h-0.852V78.75H28.156z"/>
			<path style="fill:#010101;" d="M31.029,81.456c-0.1,0.168-0.231,0.289-0.393,0.363c-0.162,0.074-0.345,0.111-0.549,0.111
				c-0.232,0-0.436-0.045-0.612-0.136c-0.176-0.09-0.321-0.212-0.435-0.366c-0.114-0.154-0.2-0.33-0.258-0.531
				c-0.058-0.199-0.087-0.407-0.087-0.623c0-0.209,0.029-0.409,0.087-0.604c0.058-0.193,0.144-0.365,0.258-0.513
				c0.114-0.147,0.257-0.267,0.429-0.356c0.172-0.091,0.372-0.136,0.6-0.136c0.184,0,0.359,0.039,0.525,0.117
				c0.166,0.077,0.297,0.192,0.393,0.345H31v-1.561h0.852v4.285h-0.81v-0.396H31.029z M30.994,79.923
				c-0.024-0.117-0.065-0.222-0.123-0.312c-0.058-0.09-0.133-0.162-0.225-0.219c-0.092-0.056-0.208-0.084-0.348-0.084
				s-0.258,0.028-0.354,0.084c-0.096,0.057-0.173,0.131-0.231,0.223s-0.1,0.197-0.126,0.314c-0.026,0.118-0.039,0.241-0.039,0.369
				c0,0.12,0.014,0.24,0.042,0.36s0.073,0.228,0.135,0.321s0.14,0.17,0.234,0.228c0.094,0.058,0.207,0.087,0.339,0.087
				c0.14,0,0.257-0.027,0.351-0.084c0.094-0.056,0.169-0.131,0.225-0.225c0.056-0.094,0.096-0.201,0.12-0.321
				c0.024-0.12,0.036-0.244,0.036-0.372S31.018,80.041,30.994,79.923z"/>
			<path style="fill:#010101;" d="M32.518,78.271v-0.703h0.852v0.703H32.518z M33.37,78.75v3.103h-0.852V78.75H33.37z"/>
			<path style="fill:#010101;" d="M34.851,78.75v0.576h0.012c0.04-0.097,0.094-0.185,0.162-0.267
				c0.068-0.082,0.146-0.152,0.234-0.211c0.088-0.058,0.182-0.103,0.282-0.135c0.1-0.031,0.204-0.048,0.312-0.048
				c0.056,0,0.118,0.011,0.186,0.03v0.792c-0.04-0.009-0.088-0.015-0.144-0.021c-0.056-0.007-0.11-0.01-0.162-0.01
				c-0.156,0-0.288,0.025-0.396,0.078c-0.108,0.052-0.195,0.123-0.261,0.213s-0.113,0.195-0.141,0.314
				c-0.028,0.121-0.042,0.25-0.042,0.391v1.398h-0.852V78.75H34.851z"/>
			<path style="fill:#010101;" d="M37.18,81.108c0.127,0.123,0.312,0.186,0.552,0.186c0.172,0,0.319-0.043,0.444-0.129
				c0.123-0.086,0.199-0.177,0.228-0.273h0.75c-0.12,0.373-0.304,0.639-0.552,0.799s-0.549,0.24-0.9,0.24
				c-0.244,0-0.464-0.039-0.66-0.117c-0.196-0.078-0.362-0.189-0.498-0.334c-0.136-0.144-0.241-0.315-0.315-0.516
				c-0.074-0.199-0.111-0.42-0.111-0.66c0-0.231,0.038-0.447,0.114-0.647c0.076-0.2,0.184-0.373,0.324-0.519
				c0.14-0.146,0.307-0.262,0.501-0.346c0.193-0.084,0.408-0.126,0.645-0.126c0.264,0,0.494,0.052,0.69,0.153
				s0.356,0.238,0.483,0.41c0.125,0.172,0.217,0.369,0.272,0.588c0.056,0.221,0.075,0.451,0.06,0.69h-2.238
				C36.981,80.784,37.051,80.983,37.18,81.108z M38.143,79.476c-0.102-0.111-0.258-0.168-0.465-0.168
				c-0.137,0-0.25,0.023-0.34,0.069s-0.162,0.103-0.215,0.171c-0.055,0.068-0.093,0.141-0.115,0.217
				c-0.021,0.075-0.035,0.144-0.039,0.203h1.386C38.315,79.752,38.244,79.588,38.143,79.476z"/>
			<path style="fill:#010101;" d="M41.193,79.308c-0.137,0-0.25,0.031-0.342,0.094c-0.092,0.062-0.168,0.142-0.226,0.24
				c-0.058,0.098-0.099,0.205-0.122,0.323c-0.025,0.118-0.037,0.235-0.037,0.351c0,0.113,0.012,0.227,0.037,0.343
				c0.023,0.116,0.062,0.221,0.116,0.315c0.054,0.094,0.127,0.17,0.22,0.23c0.092,0.061,0.203,0.09,0.336,0.09
				c0.203,0,0.36-0.057,0.471-0.171c0.109-0.114,0.179-0.267,0.207-0.459h0.822c-0.057,0.412-0.217,0.726-0.48,0.942
				c-0.264,0.216-0.602,0.324-1.014,0.324c-0.232,0-0.445-0.039-0.64-0.117s-0.358-0.188-0.495-0.328
				c-0.136-0.139-0.242-0.307-0.318-0.5c-0.075-0.194-0.113-0.407-0.113-0.639c0-0.24,0.035-0.463,0.105-0.67
				c0.069-0.205,0.172-0.384,0.309-0.533c0.136-0.15,0.302-0.268,0.498-0.352c0.195-0.084,0.42-0.126,0.672-0.126
				c0.184,0,0.361,0.024,0.531,0.072s0.322,0.12,0.455,0.219c0.135,0.099,0.244,0.22,0.328,0.366s0.131,0.318,0.144,0.52h-0.834
				C41.768,79.485,41.557,79.308,41.193,79.308z"/>
			<path style="fill:#010101;" d="M44.859,78.75v0.569h-0.625v1.537c0,0.144,0.025,0.24,0.072,0.287
				c0.049,0.049,0.145,0.072,0.289,0.072c0.047,0,0.094-0.002,0.137-0.006c0.045-0.004,0.086-0.01,0.127-0.018v0.66
				c-0.072,0.012-0.152,0.02-0.24,0.023s-0.174,0.006-0.258,0.006c-0.133,0-0.258-0.009-0.375-0.027
				c-0.118-0.018-0.223-0.053-0.312-0.104s-0.16-0.126-0.213-0.222c-0.052-0.096-0.078-0.223-0.078-0.379v-1.83h-0.516V78.75h0.516
				v-0.931h0.852v0.931H44.859z"/>
			<path style="fill:#010101;" d="M45.291,78.271v-0.703h0.852v0.703H45.291z M46.143,78.75v3.103h-0.852V78.75H46.143z"/>
			<path style="fill:#010101;" d="M46.832,79.629c0.076-0.202,0.185-0.374,0.324-0.516c0.141-0.142,0.309-0.253,0.504-0.33
				c0.196-0.078,0.416-0.117,0.66-0.117s0.465,0.039,0.664,0.117c0.197,0.077,0.366,0.188,0.506,0.33
				c0.141,0.142,0.248,0.313,0.324,0.516s0.114,0.427,0.114,0.675s-0.038,0.473-0.114,0.672c-0.076,0.201-0.184,0.371-0.324,0.514
				c-0.14,0.142-0.309,0.251-0.506,0.326c-0.199,0.076-0.42,0.115-0.664,0.115s-0.464-0.039-0.66-0.115
				c-0.195-0.075-0.363-0.185-0.504-0.326c-0.14-0.143-0.248-0.312-0.324-0.514c-0.075-0.199-0.113-0.424-0.113-0.672
				S46.757,79.831,46.832,79.629z M47.607,80.667c0.023,0.118,0.064,0.225,0.122,0.318s0.136,0.169,0.231,0.225
				c0.096,0.057,0.216,0.084,0.359,0.084c0.145,0,0.266-0.027,0.363-0.084c0.098-0.056,0.176-0.131,0.234-0.225
				c0.058-0.094,0.099-0.2,0.123-0.318c0.023-0.117,0.035-0.238,0.035-0.363c0-0.123-0.012-0.246-0.035-0.365
				c-0.024-0.121-0.065-0.227-0.123-0.318c-0.059-0.092-0.137-0.167-0.234-0.225c-0.098-0.059-0.219-0.088-0.363-0.088
				c-0.144,0-0.264,0.029-0.359,0.088c-0.096,0.058-0.174,0.133-0.231,0.225s-0.099,0.197-0.122,0.318
				c-0.025,0.119-0.037,0.242-0.037,0.365C47.57,80.429,47.582,80.55,47.607,80.667z"/>
			<path style="fill:#010101;" d="M51.291,78.75v0.433h0.018c0.107-0.181,0.248-0.312,0.42-0.394s0.348-0.123,0.528-0.123
				c0.228,0,0.415,0.031,0.562,0.093c0.146,0.062,0.26,0.148,0.344,0.258c0.084,0.11,0.144,0.244,0.178,0.402
				c0.033,0.158,0.051,0.333,0.051,0.525v1.908h-0.852v-1.752c0-0.256-0.041-0.447-0.12-0.574c-0.08-0.125-0.222-0.188-0.427-0.188
				c-0.231,0-0.399,0.069-0.504,0.207c-0.104,0.138-0.156,0.365-0.156,0.681v1.627H50.48V78.75H51.291z"/>
			<path style="fill:#010101;" d="M54.152,79.206c0.088-0.132,0.201-0.238,0.336-0.318c0.137-0.08,0.289-0.137,0.459-0.17
				c0.17-0.035,0.342-0.052,0.514-0.052c0.156,0,0.314,0.011,0.475,0.033c0.159,0.022,0.305,0.065,0.438,0.129
				c0.132,0.063,0.24,0.153,0.324,0.267c0.084,0.114,0.125,0.266,0.125,0.453v1.614c0,0.14,0.009,0.274,0.024,0.401
				c0.017,0.129,0.044,0.225,0.084,0.289h-0.864c-0.016-0.049-0.029-0.098-0.039-0.147s-0.017-0.101-0.021-0.153
				c-0.136,0.141-0.296,0.238-0.479,0.295c-0.185,0.055-0.373,0.084-0.564,0.084c-0.148,0-0.286-0.019-0.414-0.055
				s-0.24-0.092-0.336-0.168s-0.171-0.172-0.225-0.288c-0.055-0.116-0.082-0.254-0.082-0.414c0-0.176,0.031-0.321,0.094-0.435
				c0.062-0.114,0.142-0.205,0.24-0.273c0.098-0.068,0.209-0.119,0.336-0.152c0.125-0.034,0.252-0.062,0.381-0.082
				c0.128-0.02,0.254-0.035,0.378-0.047c0.124-0.013,0.233-0.031,0.33-0.055c0.096-0.023,0.172-0.059,0.228-0.105
				c0.057-0.045,0.082-0.112,0.078-0.2c0-0.093-0.015-0.165-0.045-0.22c-0.029-0.054-0.07-0.096-0.12-0.125
				c-0.05-0.03-0.108-0.051-0.174-0.061s-0.138-0.016-0.213-0.016c-0.168,0-0.3,0.037-0.396,0.109
				c-0.097,0.071-0.152,0.191-0.168,0.359h-0.853C54.015,79.504,54.064,79.338,54.152,79.206z M55.836,80.409
				c-0.055,0.018-0.112,0.033-0.174,0.045c-0.062,0.012-0.127,0.021-0.195,0.029c-0.068,0.009-0.136,0.019-0.204,0.031
				c-0.063,0.012-0.127,0.027-0.188,0.047c-0.062,0.021-0.116,0.047-0.162,0.082c-0.047,0.033-0.084,0.076-0.111,0.129
				c-0.027,0.052-0.042,0.117-0.042,0.197c0,0.076,0.015,0.141,0.042,0.192s0.066,0.093,0.114,0.123s0.104,0.051,0.168,0.063
				c0.063,0.012,0.13,0.018,0.198,0.018c0.168,0,0.297-0.028,0.39-0.084c0.092-0.057,0.159-0.123,0.204-0.201
				c0.044-0.078,0.07-0.156,0.081-0.236c0.01-0.08,0.015-0.145,0.015-0.193v-0.317C55.936,80.366,55.89,80.392,55.836,80.409z"/>
			<path style="fill:#010101;" d="M58.359,77.567v4.285h-0.853v-4.285H58.359z"/>
			<path style="fill:#010101;" d="M32.655,84.769v0.791h-2.07v0.99h1.794v0.732h-1.794v1.77h-0.942v-4.283H32.655z"/>
			<path style="fill:#010101;" d="M33.987,84.769v4.283h-0.852v-4.283H33.987z"/>
			<path style="fill:#010101;" d="M34.683,85.47v-0.701h0.852v0.701H34.683z M35.535,85.95v3.102h-0.852V85.95H35.535z"/>
			<path style="fill:#010101;" d="M37.689,86.509c-0.137,0-0.25,0.03-0.343,0.092c-0.092,0.062-0.167,0.143-0.226,0.24
				c-0.057,0.099-0.098,0.207-0.122,0.324c-0.024,0.118-0.036,0.235-0.036,0.352c0,0.111,0.012,0.226,0.036,0.342
				c0.024,0.115,0.063,0.221,0.116,0.314c0.055,0.094,0.127,0.172,0.22,0.231c0.092,0.06,0.204,0.09,0.336,0.09
				c0.204,0,0.36-0.058,0.471-0.171s0.179-0.268,0.207-0.459h0.822c-0.056,0.412-0.216,0.727-0.479,0.941
				c-0.265,0.217-0.603,0.324-1.015,0.324c-0.231,0-0.444-0.039-0.64-0.117c-0.193-0.078-0.358-0.187-0.494-0.326
				c-0.136-0.141-0.242-0.307-0.318-0.502c-0.076-0.193-0.114-0.406-0.114-0.639c0-0.24,0.035-0.463,0.105-0.668
				c0.07-0.207,0.173-0.385,0.309-0.535c0.136-0.149,0.302-0.267,0.499-0.351c0.195-0.084,0.42-0.126,0.672-0.126
				c0.184,0,0.36,0.023,0.53,0.072c0.171,0.048,0.322,0.121,0.456,0.219c0.135,0.098,0.243,0.221,0.327,0.366
				s0.132,0.319,0.144,0.519h-0.834C38.263,86.687,38.053,86.509,37.689,86.509z"/>
			<path style="fill:#010101;" d="M40.58,84.769v2.298l1.074-1.116h1.008l-1.17,1.141l1.303,1.961h-1.032l-0.853-1.386l-0.33,0.318
				v1.067h-0.852v-4.283H40.58z"/>
		</g>
		<g id="Flick_Omnidirectionally_3_">
			<g id="Tap__x28_Stroked_x29__15_">
				<path style="fill:#010101;" d="M22,37c-0.552,0-1-0.448-1-1c0-8.271,6.729-15,15.001-15C44.271,21,51,27.729,51,35.999
					c0,0.552-0.447,1-1,1s-1-0.448-1-1C49,28.832,43.168,23,36.001,23C28.832,23,23,28.832,23,36C23,36.552,22.552,37,22,37z"/>
				<path style="fill:#010101;" d="M36,29c-6.284,0-8.114,5.679-8.114,19.005v0.599C30.227,50.114,33.007,51,36,51
					c2.992,0,5.773-0.886,8.114-2.396v-0.599C44.114,34.679,42.284,29,36,29z M35.981,40.989c-6.018,0-5.127-7.311-5.127-7.311
					s1.026-2.315,5.127-2.315s5.17,2.315,5.17,2.315S41.996,40.989,35.981,40.989z"/>
			</g>
			<polygon style="fill:#010101;" points="62,31 59.438,31 62.64,35 56,35 56,37 62.639,37 59.438,41 62,41 66,35.999 			"/>
			<polygon id="Arrow_28_" style="fill:#010101;" points="69.443,36 65.438,41 68,41 72,35.999 68,31 65.438,31 			"/>
			<polygon style="fill:#010101;" points="10,31 12.562,31 9.36,35 16,35 16,37 9.361,37 12.562,41 10,41 6,35.999 			"/>
			<polygon id="Arrow_27_" style="fill:#010101;" points="2.557,36 6.562,41 4,41 0,35.999 4,31 6.562,31 			"/>
			<polygon style="fill:#010101;" points="41,62 41,59.438 37,62.64 37,56 35,56 35,62.639 31,59.438 31,62 36.001,66 			"/>
			<polygon id="Arrow_26_" style="fill:#010101;" points="36,69.443 31,65.438 31,68 36.001,72 41,68 41,65.438 			"/>
			<polygon style="fill:#010101;" points="41,10 41,12.562 37,9.36 37,16 35,16 35,9.361 31,12.562 31,10 36.001,6 			"/>
			<polygon id="Arrow_25_" style="fill:#010101;" points="36,2.557 31,6.562 31,4 36.001,0 41,4 41,6.562 			"/>
		</g>
	</g>
</g>
</svg>
