<?xml version="1.0" encoding="utf-8"?>
<!-- Generator: Adobe Illustrator 14.0.0, SVG Export Plug-In . SVG Version: 6.00 Build 43363)  -->
<!DOCTYPE svg PUBLIC "-//W3C//DTD SVG 1.1//EN" "http://www.w3.org/Graphics/SVG/1.1/DTD/svg11.dtd">
<svg version="1.1" id="Layer_1" xmlns="http://www.w3.org/2000/svg" xmlns:xlink="http://www.w3.org/1999/xlink" x="0px" y="0px"
	 width="37.049px" height="40.901px" viewBox="0 0 37.049 40.901" enable-background="new 0 0 37.049 40.901" xml:space="preserve">
<g>
	<g>
		<path fill="#010101" d="M0,36.323v-0.792h3.51v0.792H2.226v3.492H1.284v-3.492H0z"/>
		<path fill="#010101" d="M3.366,37.169c0.088-0.132,0.2-0.237,0.336-0.317c0.136-0.08,0.289-0.137,0.459-0.171
			s0.341-0.051,0.513-0.051c0.156,0,0.314,0.011,0.474,0.032c0.16,0.022,0.306,0.065,0.438,0.129
			c0.132,0.064,0.24,0.153,0.324,0.268s0.126,0.265,0.126,0.453v1.613c0,0.141,0.008,0.274,0.024,0.402
			c0.016,0.128,0.044,0.225,0.084,0.288H5.28c-0.016-0.048-0.029-0.097-0.039-0.147c-0.01-0.05-0.017-0.101-0.021-0.152
			c-0.136,0.14-0.296,0.238-0.48,0.294s-0.372,0.084-0.564,0.084c-0.148,0-0.286-0.019-0.414-0.054
			c-0.128-0.036-0.24-0.093-0.336-0.168c-0.096-0.076-0.171-0.173-0.225-0.288C3.147,39.268,3.12,39.13,3.12,38.97
			c0-0.176,0.031-0.321,0.093-0.436c0.062-0.113,0.142-0.205,0.24-0.272c0.098-0.068,0.21-0.119,0.336-0.153
			s0.253-0.061,0.381-0.081c0.128-0.02,0.254-0.036,0.378-0.048s0.234-0.03,0.33-0.054c0.096-0.024,0.172-0.06,0.228-0.105
			c0.056-0.046,0.082-0.113,0.078-0.201c0-0.092-0.015-0.165-0.045-0.219c-0.03-0.054-0.07-0.096-0.12-0.126
			c-0.05-0.03-0.108-0.05-0.174-0.06c-0.066-0.011-0.137-0.016-0.213-0.016c-0.168,0-0.3,0.036-0.396,0.108
			c-0.096,0.072-0.152,0.191-0.168,0.359H3.216C3.228,37.468,3.278,37.302,3.366,37.169z M5.049,38.372
			c-0.054,0.019-0.112,0.033-0.174,0.045c-0.062,0.013-0.127,0.022-0.195,0.03s-0.136,0.019-0.204,0.03
			c-0.064,0.012-0.127,0.028-0.189,0.048c-0.062,0.021-0.116,0.047-0.162,0.081c-0.046,0.034-0.083,0.077-0.111,0.129
			s-0.042,0.118-0.042,0.198c0,0.076,0.014,0.14,0.042,0.191c0.028,0.053,0.066,0.094,0.114,0.123
			c0.048,0.03,0.104,0.052,0.168,0.063s0.13,0.018,0.198,0.018c0.168,0,0.298-0.027,0.39-0.084c0.092-0.056,0.16-0.123,0.204-0.201
			c0.044-0.077,0.071-0.156,0.081-0.236c0.01-0.08,0.015-0.145,0.015-0.192v-0.317C5.148,38.329,5.103,38.354,5.049,38.372z"/>
		<path fill="#010101" d="M7.505,36.714v0.396h0.012c0.104-0.168,0.236-0.29,0.396-0.366c0.16-0.075,0.336-0.113,0.528-0.113
			c0.244,0,0.454,0.046,0.63,0.138c0.176,0.092,0.322,0.214,0.438,0.366c0.116,0.151,0.202,0.329,0.258,0.53
			c0.056,0.202,0.084,0.413,0.084,0.634c0,0.208-0.028,0.407-0.084,0.6s-0.141,0.362-0.255,0.51
			c-0.114,0.148-0.256,0.267-0.426,0.354s-0.369,0.132-0.597,0.132c-0.192,0-0.369-0.039-0.531-0.117s-0.295-0.193-0.399-0.345
			H7.547v1.47H6.696v-4.188H7.505z M8.613,39.174c0.094-0.057,0.17-0.13,0.228-0.22c0.058-0.09,0.099-0.194,0.123-0.314
			C8.988,38.52,9,38.397,9,38.273s-0.013-0.246-0.039-0.366s-0.069-0.227-0.129-0.32c-0.06-0.095-0.137-0.171-0.231-0.229
			c-0.094-0.058-0.209-0.087-0.345-0.087c-0.14,0-0.257,0.029-0.351,0.087c-0.094,0.058-0.17,0.133-0.228,0.225
			c-0.058,0.093-0.099,0.198-0.123,0.318s-0.036,0.244-0.036,0.372c0,0.124,0.013,0.246,0.039,0.366s0.068,0.225,0.126,0.314
			s0.135,0.163,0.231,0.22c0.096,0.056,0.212,0.084,0.348,0.084C8.401,39.258,8.519,39.229,8.613,39.174z"/>
		<path fill="#010101" d="M12.144,37.169c0.088-0.132,0.2-0.237,0.336-0.317c0.136-0.08,0.289-0.137,0.459-0.171
			s0.341-0.051,0.513-0.051c0.156,0,0.314,0.011,0.474,0.032c0.16,0.022,0.306,0.065,0.438,0.129
			c0.132,0.064,0.24,0.153,0.324,0.268s0.126,0.265,0.126,0.453v1.613c0,0.141,0.008,0.274,0.024,0.402
			c0.016,0.128,0.044,0.225,0.084,0.288h-0.864c-0.016-0.048-0.029-0.097-0.039-0.147c-0.01-0.05-0.017-0.101-0.021-0.152
			c-0.136,0.14-0.296,0.238-0.48,0.294s-0.372,0.084-0.564,0.084c-0.148,0-0.286-0.019-0.414-0.054
			c-0.128-0.036-0.24-0.093-0.336-0.168c-0.096-0.076-0.171-0.173-0.225-0.288c-0.054-0.116-0.081-0.254-0.081-0.414
			c0-0.176,0.031-0.321,0.093-0.436c0.062-0.113,0.142-0.205,0.24-0.272c0.098-0.068,0.21-0.119,0.336-0.153
			s0.253-0.061,0.381-0.081c0.128-0.02,0.254-0.036,0.378-0.048s0.234-0.03,0.33-0.054c0.096-0.024,0.172-0.06,0.228-0.105
			c0.056-0.046,0.082-0.113,0.078-0.201c0-0.092-0.015-0.165-0.045-0.219c-0.03-0.054-0.07-0.096-0.12-0.126
			c-0.05-0.03-0.108-0.05-0.174-0.06c-0.066-0.011-0.137-0.016-0.213-0.016c-0.168,0-0.3,0.036-0.396,0.108
			c-0.096,0.072-0.152,0.191-0.168,0.359h-0.852C12.005,37.468,12.056,37.302,12.144,37.169z M13.827,38.372
			c-0.054,0.019-0.112,0.033-0.174,0.045c-0.062,0.013-0.127,0.022-0.195,0.03s-0.136,0.019-0.204,0.03
			c-0.064,0.012-0.127,0.028-0.189,0.048c-0.062,0.021-0.116,0.047-0.162,0.081c-0.046,0.034-0.083,0.077-0.111,0.129
			s-0.042,0.118-0.042,0.198c0,0.076,0.014,0.14,0.042,0.191c0.028,0.053,0.066,0.094,0.114,0.123
			c0.048,0.03,0.104,0.052,0.168,0.063s0.13,0.018,0.198,0.018c0.168,0,0.298-0.027,0.39-0.084c0.092-0.056,0.16-0.123,0.204-0.201
			c0.044-0.077,0.071-0.156,0.081-0.236c0.01-0.08,0.015-0.145,0.015-0.192v-0.317C13.926,38.329,13.88,38.354,13.827,38.372z"/>
		<path fill="#010101" d="M16.284,36.714v0.432h0.018c0.108-0.18,0.248-0.312,0.42-0.394c0.172-0.081,0.348-0.122,0.528-0.122
			c0.228,0,0.415,0.03,0.561,0.093c0.146,0.062,0.261,0.147,0.345,0.258s0.143,0.244,0.177,0.402
			c0.034,0.157,0.051,0.333,0.051,0.524v1.908h-0.852v-1.752c0-0.256-0.04-0.447-0.12-0.573c-0.08-0.126-0.222-0.188-0.426-0.188
			c-0.232,0-0.4,0.068-0.504,0.207c-0.104,0.138-0.156,0.364-0.156,0.681v1.626h-0.852v-3.102H16.284z"/>
		<path fill="#010101" d="M21.233,39.419c-0.1,0.169-0.23,0.289-0.393,0.363s-0.345,0.111-0.549,0.111
			c-0.232,0-0.436-0.045-0.611-0.135c-0.177-0.091-0.322-0.212-0.436-0.366c-0.114-0.154-0.2-0.331-0.258-0.531
			c-0.058-0.2-0.087-0.408-0.087-0.624c0-0.208,0.029-0.409,0.087-0.603c0.058-0.194,0.144-0.365,0.258-0.514
			c0.114-0.147,0.257-0.267,0.429-0.356s0.372-0.135,0.601-0.135c0.184,0,0.358,0.038,0.524,0.116s0.298,0.193,0.394,0.346h0.012
			v-1.561h0.852v4.284h-0.81v-0.396H21.233z M21.198,37.887c-0.024-0.118-0.065-0.223-0.123-0.312
			c-0.059-0.09-0.133-0.163-0.225-0.219c-0.093-0.056-0.209-0.084-0.349-0.084s-0.258,0.028-0.354,0.084
			c-0.096,0.056-0.172,0.13-0.23,0.222c-0.059,0.093-0.1,0.197-0.126,0.315s-0.039,0.241-0.039,0.369
			c0,0.12,0.015,0.239,0.042,0.359s0.073,0.228,0.135,0.321c0.062,0.094,0.141,0.17,0.234,0.229
			c0.094,0.058,0.207,0.087,0.339,0.087c0.14,0,0.257-0.028,0.351-0.084c0.094-0.057,0.17-0.132,0.226-0.226s0.096-0.201,0.12-0.321
			c0.023-0.119,0.035-0.243,0.035-0.371S21.221,38.005,21.198,37.887z"/>
		<path fill="#010101" d="M25.397,35.531v1.645h1.734v-1.645h0.942v4.284h-0.942v-1.848h-1.734v1.848h-0.941v-4.284H25.397z"/>
		<path fill="#010101" d="M28.829,37.593c0.076-0.202,0.185-0.374,0.324-0.517c0.141-0.142,0.309-0.252,0.504-0.33
			c0.196-0.078,0.416-0.116,0.66-0.116s0.465,0.038,0.664,0.116c0.197,0.078,0.366,0.188,0.506,0.33
			c0.141,0.143,0.248,0.314,0.324,0.517s0.114,0.427,0.114,0.675s-0.038,0.472-0.114,0.672s-0.184,0.371-0.324,0.513
			c-0.14,0.143-0.309,0.251-0.506,0.327c-0.199,0.076-0.42,0.114-0.664,0.114s-0.464-0.038-0.66-0.114
			c-0.195-0.076-0.363-0.185-0.504-0.327c-0.14-0.142-0.248-0.312-0.324-0.513c-0.075-0.2-0.113-0.424-0.113-0.672
			S28.753,37.795,28.829,37.593z M29.604,38.631c0.023,0.117,0.064,0.224,0.122,0.317s0.136,0.169,0.231,0.226
			c0.096,0.056,0.216,0.084,0.359,0.084c0.145,0,0.266-0.028,0.363-0.084c0.098-0.057,0.176-0.132,0.234-0.226
			c0.058-0.094,0.099-0.2,0.123-0.317c0.023-0.118,0.035-0.239,0.035-0.363s-0.012-0.246-0.035-0.366
			c-0.024-0.12-0.065-0.226-0.123-0.318c-0.059-0.092-0.137-0.167-0.234-0.225s-0.219-0.087-0.363-0.087
			c-0.144,0-0.264,0.029-0.359,0.087s-0.174,0.133-0.231,0.225c-0.058,0.093-0.099,0.198-0.122,0.318
			c-0.025,0.12-0.037,0.242-0.037,0.366S29.579,38.513,29.604,38.631z"/>
		<path fill="#010101" d="M33.354,35.531v4.284h-0.853v-4.284H33.354z"/>
		<path fill="#010101" d="M36.227,39.419c-0.1,0.169-0.23,0.289-0.393,0.363s-0.345,0.111-0.549,0.111
			c-0.232,0-0.436-0.045-0.611-0.135c-0.177-0.091-0.322-0.212-0.436-0.366c-0.114-0.154-0.2-0.331-0.258-0.531
			c-0.059-0.2-0.088-0.408-0.088-0.624c0-0.208,0.029-0.409,0.088-0.603c0.058-0.194,0.144-0.365,0.258-0.514
			c0.113-0.147,0.257-0.267,0.429-0.356s0.372-0.135,0.601-0.135c0.184,0,0.358,0.038,0.524,0.116s0.298,0.193,0.394,0.346h0.012
			v-1.561h0.852v4.284h-0.81v-0.396H36.227z M36.192,37.887c-0.024-0.118-0.065-0.223-0.123-0.312
			c-0.059-0.09-0.133-0.163-0.225-0.219c-0.093-0.056-0.209-0.084-0.349-0.084s-0.258,0.028-0.354,0.084
			c-0.096,0.056-0.172,0.13-0.23,0.222c-0.059,0.093-0.1,0.197-0.126,0.315s-0.039,0.241-0.039,0.369
			c0,0.12,0.015,0.239,0.042,0.359s0.073,0.228,0.135,0.321c0.062,0.094,0.141,0.17,0.234,0.229
			c0.094,0.058,0.207,0.087,0.339,0.087c0.14,0,0.257-0.028,0.351-0.084c0.094-0.057,0.17-0.132,0.226-0.226s0.096-0.201,0.12-0.321
			c0.023-0.119,0.035-0.243,0.035-0.371S36.215,38.005,36.192,37.887z"/>
	</g>
	<path fill="#010101" d="M18.642,0c-8.27,0-15,6.729-15,15c0,8.271,6.73,15,15,15c8.271,0,15-6.729,15-15
		C33.641,6.729,26.913,0,18.642,0 M18.624,19.989c-6.018,0-5.127-7.31-5.127-7.31s1.027-2.316,5.127-2.316
		c4.1,0,5.17,2.316,5.17,2.316S24.637,19.989,18.624,19.989 M26.739,25.153C26.567,13.162,24.625,8,18.642,8
		c-5.981,0-7.924,5.162-8.096,17.153C7.561,22.77,5.642,19.107,5.642,15c0-7.169,5.831-13,13-13c7.167,0,13,5.831,13,13
		C31.641,19.107,29.723,22.77,26.739,25.153"/>
</g>
</svg>
