<?xml version="1.0" encoding="iso-8859-1"?>
<!-- Generator: Adobe Illustrator 15.1.0, SVG Export Plug-In . SVG Version: 6.00 Build 0)  -->
<!DOCTYPE svg PUBLIC "-//W3C//DTD SVG 1.1//EN" "http://www.w3.org/Graphics/SVG/1.1/DTD/svg11.dtd">
<svg version="1.1" xmlns="http://www.w3.org/2000/svg" xmlns:xlink="http://www.w3.org/1999/xlink" x="0px" y="0px"
	 width="36.598px" height="81.861px" viewBox="0 0 36.598 81.861" style="enable-background:new 0 0 36.598 81.861;"
	 xml:space="preserve">
<g id="Layer_1">
</g>
<g id="Gestures">
	<g>
		<g>
			<path style="fill:#010101;" d="M1.386,81.783L0,77.499h0.966l0.954,3.013h0.012l0.966-3.013H3.87l-1.422,4.284H1.386z"/>
			<path style="fill:#010101;" d="M4.728,81.039c0.128,0.124,0.312,0.186,0.552,0.186c0.172,0,0.32-0.043,0.444-0.129
				s0.2-0.176,0.228-0.272h0.75c-0.12,0.372-0.304,0.638-0.552,0.798c-0.248,0.16-0.548,0.24-0.9,0.24
				c-0.244,0-0.464-0.039-0.66-0.117c-0.196-0.078-0.362-0.189-0.498-0.333c-0.136-0.144-0.241-0.315-0.315-0.517
				c-0.074-0.199-0.111-0.42-0.111-0.659c0-0.231,0.038-0.448,0.114-0.647c0.076-0.201,0.184-0.373,0.324-0.52
				c0.14-0.146,0.307-0.262,0.501-0.346c0.194-0.084,0.409-0.125,0.645-0.125c0.264,0,0.494,0.051,0.69,0.152
				c0.196,0.102,0.357,0.239,0.483,0.411s0.217,0.368,0.273,0.588c0.056,0.22,0.076,0.45,0.06,0.69H4.518
				C4.53,80.715,4.6,80.915,4.728,81.039z M5.691,79.407c-0.102-0.112-0.257-0.168-0.465-0.168c-0.136,0-0.249,0.022-0.339,0.069
				c-0.09,0.045-0.162,0.103-0.216,0.17c-0.054,0.068-0.092,0.141-0.114,0.217s-0.035,0.145-0.039,0.204h1.386
				C5.864,79.684,5.792,79.52,5.691,79.407z"/>
			<path style="fill:#010101;" d="M8.069,78.682v0.576h0.012c0.04-0.097,0.094-0.186,0.162-0.268
				c0.068-0.082,0.146-0.152,0.234-0.21s0.182-0.103,0.282-0.136c0.1-0.031,0.204-0.047,0.312-0.047c0.056,0,0.118,0.01,0.186,0.029
				v0.793c-0.04-0.009-0.088-0.016-0.144-0.021c-0.056-0.006-0.11-0.01-0.162-0.01c-0.156,0-0.288,0.026-0.396,0.078
				C8.448,79.52,8.36,79.59,8.294,79.68s-0.113,0.195-0.141,0.315c-0.028,0.12-0.042,0.25-0.042,0.39v1.398H7.26v-3.102H8.069z"/>
			<path style="fill:#010101;" d="M11.297,78.682v0.569h-0.624v1.536c0,0.145,0.024,0.24,0.072,0.288s0.144,0.071,0.288,0.071
				c0.048,0,0.094-0.002,0.138-0.006s0.086-0.01,0.126-0.018v0.66c-0.072,0.012-0.152,0.02-0.24,0.023s-0.174,0.006-0.258,0.006
				c-0.132,0-0.257-0.008-0.375-0.026c-0.118-0.019-0.222-0.053-0.312-0.104c-0.09-0.053-0.161-0.127-0.213-0.223
				c-0.052-0.096-0.078-0.222-0.078-0.378v-1.83H9.306v-0.569h0.516v-0.931h0.852v0.931H11.297z"/>
			<path style="fill:#010101;" d="M11.729,78.201v-0.702h0.852v0.702H11.729z M12.582,78.682v3.102h-0.852v-3.102H12.582z"/>
			<path style="fill:#010101;" d="M14.735,79.239c-0.136,0-0.25,0.03-0.342,0.093c-0.092,0.062-0.167,0.143-0.225,0.24
				c-0.058,0.098-0.099,0.206-0.123,0.324c-0.024,0.117-0.036,0.234-0.036,0.351c0,0.112,0.012,0.226,0.036,0.343
				c0.024,0.115,0.063,0.221,0.117,0.314c0.054,0.094,0.127,0.171,0.219,0.23c0.092,0.061,0.204,0.09,0.336,0.09
				c0.204,0,0.361-0.057,0.471-0.17c0.11-0.114,0.179-0.268,0.207-0.459h0.822c-0.056,0.412-0.216,0.726-0.48,0.941
				c-0.264,0.217-0.602,0.324-1.014,0.324c-0.232,0-0.445-0.039-0.639-0.117c-0.194-0.078-0.359-0.188-0.495-0.327
				c-0.136-0.14-0.242-0.307-0.318-0.501c-0.076-0.193-0.114-0.406-0.114-0.639c0-0.24,0.035-0.463,0.105-0.669
				s0.173-0.384,0.309-0.534c0.136-0.15,0.302-0.268,0.498-0.352c0.196-0.084,0.42-0.125,0.672-0.125
				c0.184,0,0.361,0.023,0.531,0.072c0.17,0.047,0.322,0.12,0.456,0.219c0.134,0.098,0.243,0.22,0.327,0.365
				c0.084,0.146,0.132,0.319,0.144,0.52h-0.834C15.309,79.417,15.099,79.239,14.735,79.239z"/>
			<path style="fill:#010101;" d="M16.811,79.137c0.088-0.131,0.2-0.237,0.336-0.317c0.136-0.08,0.289-0.138,0.459-0.171
				c0.17-0.034,0.341-0.051,0.513-0.051c0.156,0,0.314,0.011,0.474,0.033c0.16,0.021,0.306,0.064,0.438,0.129
				c0.132,0.063,0.24,0.152,0.324,0.267s0.126,0.265,0.126,0.452v1.615c0,0.14,0.008,0.273,0.024,0.401
				c0.016,0.128,0.044,0.224,0.084,0.288h-0.864c-0.016-0.048-0.029-0.098-0.039-0.146c-0.01-0.051-0.017-0.102-0.021-0.153
				c-0.136,0.14-0.296,0.237-0.48,0.294c-0.184,0.056-0.372,0.084-0.564,0.084c-0.148,0-0.286-0.018-0.414-0.055
				c-0.128-0.035-0.24-0.092-0.336-0.168c-0.096-0.075-0.171-0.172-0.225-0.287c-0.054-0.116-0.081-0.254-0.081-0.414
				c0-0.176,0.031-0.321,0.093-0.436c0.062-0.113,0.142-0.205,0.24-0.273c0.098-0.067,0.21-0.118,0.336-0.152
				c0.126-0.033,0.253-0.061,0.381-0.081c0.128-0.021,0.254-0.036,0.378-0.048s0.234-0.03,0.33-0.055
				c0.096-0.023,0.172-0.059,0.228-0.104c0.056-0.046,0.082-0.112,0.078-0.2c0-0.093-0.015-0.166-0.045-0.22
				c-0.03-0.054-0.07-0.097-0.12-0.126c-0.05-0.029-0.108-0.05-0.174-0.061c-0.066-0.01-0.137-0.015-0.213-0.015
				c-0.168,0-0.3,0.036-0.396,0.108c-0.096,0.072-0.152,0.191-0.168,0.359h-0.852C16.673,79.436,16.723,79.27,16.811,79.137z
				 M18.494,80.34c-0.054,0.019-0.112,0.033-0.174,0.045s-0.127,0.022-0.195,0.03c-0.068,0.009-0.136,0.019-0.204,0.03
				c-0.064,0.012-0.127,0.027-0.189,0.048s-0.116,0.047-0.162,0.081c-0.046,0.034-0.083,0.077-0.111,0.129
				c-0.028,0.053-0.042,0.118-0.042,0.198c0,0.075,0.014,0.14,0.042,0.192c0.028,0.051,0.066,0.092,0.114,0.123
				c0.048,0.029,0.104,0.051,0.168,0.062s0.13,0.018,0.198,0.018c0.168,0,0.298-0.027,0.39-0.084
				c0.092-0.056,0.16-0.123,0.204-0.201c0.044-0.078,0.071-0.156,0.081-0.236c0.01-0.08,0.015-0.145,0.015-0.192v-0.317
				C18.593,80.297,18.548,80.322,18.494,80.34z"/>
			<path style="fill:#010101;" d="M21.018,77.499v4.284h-0.853v-4.284H21.018z"/>
			<path style="fill:#010101;" d="M26.459,77.499v0.792h-2.07v0.99h1.794v0.732h-1.794v1.77h-0.941v-4.284H26.459z"/>
			<path style="fill:#010101;" d="M27.791,77.499v4.284h-0.852v-4.284H27.791z"/>
			<path style="fill:#010101;" d="M28.486,78.201v-0.702h0.853v0.702H28.486z M29.339,78.682v3.102h-0.853v-3.102H29.339z"/>
			<path style="fill:#010101;" d="M31.492,79.239c-0.136,0-0.25,0.03-0.342,0.093s-0.167,0.143-0.225,0.24
				c-0.059,0.098-0.1,0.206-0.123,0.324c-0.024,0.117-0.036,0.234-0.036,0.351c0,0.112,0.012,0.226,0.036,0.343
				c0.023,0.115,0.062,0.221,0.117,0.314c0.054,0.094,0.127,0.171,0.219,0.23c0.092,0.061,0.203,0.09,0.336,0.09
				c0.204,0,0.361-0.057,0.471-0.17c0.11-0.114,0.18-0.268,0.207-0.459h0.822c-0.057,0.412-0.217,0.726-0.48,0.941
				c-0.264,0.217-0.602,0.324-1.014,0.324c-0.232,0-0.445-0.039-0.639-0.117c-0.194-0.078-0.359-0.188-0.495-0.327
				s-0.242-0.307-0.318-0.501c-0.075-0.193-0.114-0.406-0.114-0.639c0-0.24,0.035-0.463,0.105-0.669s0.173-0.384,0.309-0.534
				c0.137-0.15,0.303-0.268,0.498-0.352c0.196-0.084,0.42-0.125,0.672-0.125c0.185,0,0.361,0.023,0.531,0.072
				c0.17,0.047,0.322,0.12,0.456,0.219c0.134,0.098,0.243,0.22,0.327,0.365c0.084,0.146,0.132,0.319,0.145,0.52h-0.834
				C32.066,79.417,31.856,79.239,31.492,79.239z"/>
			<path style="fill:#010101;" d="M34.385,77.499v2.298l1.074-1.115h1.008l-1.17,1.14l1.301,1.962h-1.031l-0.852-1.387l-0.33,0.318
				v1.068h-0.853v-4.284H34.385z"/>
		</g>
		<g id="Flick_Vertically_2_">
			<g id="Tap__x28_Stroked_x29__2_">
				<path style="fill:#010101;" d="M4.309,37c-0.552,0-1-0.448-1-1c0-8.271,6.729-15,15.001-15c8.271,0,14.999,6.729,14.999,14.999
					c0,0.552-0.447,1-1,1s-1-0.448-1-1C31.309,28.832,25.477,23,18.31,23c-7.169,0-13.001,5.832-13.001,13
					C5.309,36.552,4.861,37,4.309,37z"/>
				<path style="fill:#010101;" d="M18.309,29c-6.284,0-8.114,5.679-8.114,19.005v0.599C12.535,50.113,15.316,51,18.309,51
					c2.992,0,5.773-0.887,8.114-2.396v-0.599C26.423,34.679,24.593,29,18.309,29z M18.29,40.989c-6.018,0-5.127-7.311-5.127-7.311
					s1.026-2.315,5.127-2.315s5.17,2.315,5.17,2.315S24.305,40.989,18.29,40.989z"/>
			</g>
			<polygon style="fill:#010101;" points="23.309,62 23.309,59.438 19.309,62.64 19.309,56 17.309,56 17.309,62.639 13.309,59.438 
				13.309,62 18.31,66 			"/>
			<polygon id="Arrow_7_" style="fill:#010101;" points="18.309,69.443 13.309,65.438 13.309,68 18.31,72 23.309,68 23.309,65.438 
							"/>
			<polygon style="fill:#010101;" points="23.309,10 23.309,12.562 19.309,9.36 19.309,16 17.309,16 17.309,9.361 13.309,12.562 
				13.309,10 18.31,6 			"/>
			<polygon id="Arrow_6_" style="fill:#010101;" points="18.309,2.557 13.309,6.562 13.309,4 18.31,0 23.309,4 23.309,6.562 			"/>
		</g>
	</g>
</g>
</svg>
